<svg width="16" height="16" viewBox="0 0 16 16" fill="none" xmlns="http://www.w3.org/2000/svg">
<path d="M8.13342 7.86681L7.1934 8.80681C6.6734 9.32681 6.6734 10.1735 7.1934 10.6935C7.7134 11.2135 8.56007 11.2135 9.08007 10.6935L10.5601 9.21349C11.6001 8.17349 11.6001 6.48682 10.5601 5.44016C9.5201 4.40016 7.83341 4.40016 6.78674 5.44016L5.17342 7.05348C4.28008 7.94681 4.28008 9.39348 5.17342 10.2868" stroke="#A6A6A6" stroke-linecap="round" stroke-linejoin="round"/>
<path d="M6.00016 14.6668H10.0002C13.3335 14.6668 14.6668 13.3335 14.6668 10.0002V6.00016C14.6668 2.66683 13.3335 1.3335 10.0002 1.3335H6.00016C2.66683 1.3335 1.3335 2.66683 1.3335 6.00016V10.0002C1.3335 13.3335 2.66683 14.6668 6.00016 14.6668Z" stroke="#A6A6A6" stroke-linecap="round" stroke-linejoin="round"/>
</svg>
