<svg width="16" height="20" viewBox="0 0 16 20" fill="none" xmlns="http://www.w3.org/2000/svg">
<mask id="mask0_97_37994" style="mask-type:alpha" maskUnits="userSpaceOnUse" x="-1" y="0" width="17" height="20">
<path d="M14.7054 19.0588H1.29363C0.578909 19.0588 -0.000488281 18.4794 -0.000488281 17.7647V2.23528C-0.000488281 1.52056 0.578909 0.941162 1.29363 0.941162H9.99952L15.9995 6.94117V17.7647C15.9995 18.4794 15.4201 19.0588 14.7054 19.0588Z" fill="url(#paint0_linear_97_37994)"/>
</mask>
<g mask="url(#mask0_97_37994)">
<path d="M14.7059 19.0586H1.29412C0.579397 19.0586 0 18.4792 0 17.7645V2.23504C0 1.52032 0.579397 0.940918 1.29412 0.940918H10L16 6.94092V17.7645C16 18.4792 15.4206 19.0586 14.7059 19.0586Z" fill="url(#paint1_linear_97_37994)"/>
<g opacity="0.82" filter="url(#filter0_f_97_37994)">
<rect x="2.82324" y="9.70569" width="10.4706" height="4.94118" fill="#0F7D56" fill-opacity="0.27" style="mix-blend-mode:darken"/>
</g>
<path opacity="0.12" fill-rule="evenodd" clip-rule="evenodd" d="M2.76448 10.529V8.41145H5.7647L5.7647 10.529L2.76448 10.529ZM2.76448 11.2349V13.3526L5.7647 13.3526V11.2349L2.76448 11.2349ZM2.76448 14.0585V16.1762H5.7647V14.0585L2.76448 14.0585ZM6.47058 16.1762H9.47057V14.0585H6.47058V16.1762ZM10.1765 16.1762H13.1763V14.0585L10.1765 14.0585V16.1762ZM13.1763 13.3526V11.2349L10.1765 11.2349V13.3526L13.1763 13.3526ZM13.1763 10.529V8.41145H10.1765V10.529L13.1763 10.529ZM9.47057 8.41145H6.47058V10.529L9.47057 10.529V8.41145ZM2.05859 8.17616C2.05859 7.91626 2.26928 7.70557 2.52918 7.70557H13.4115C13.6714 7.70557 13.8821 7.91626 13.8821 8.17616V16.4115C13.8821 16.6714 13.6714 16.882 13.4115 16.882H2.52918C2.26928 16.882 2.05859 16.6714 2.05859 16.4115V8.17616ZM9.47057 11.2349V13.3526H6.47058V11.2349L9.47057 11.2349Z" fill="white"/>
<mask id="path-5-outside-1_97_37994" maskUnits="userSpaceOnUse" x="3.35254" y="9.47046" width="10" height="5" fill="black">
<rect fill="white" x="3.35254" y="9.47046" width="10" height="5"/>
<path d="M3.75219 13.4937C3.69952 13.4937 3.65305 13.4751 3.61277 13.4379C3.5756 13.3977 3.55701 13.3512 3.55701 13.2985C3.55701 13.2489 3.57095 13.2056 3.59883 13.1684L4.6723 11.8486L3.60813 10.5382C3.58025 10.501 3.5663 10.4576 3.5663 10.408C3.5663 10.3492 3.58489 10.3012 3.62207 10.264C3.66234 10.2237 3.71191 10.2036 3.77077 10.2036C3.84513 10.2036 3.90244 10.2315 3.94272 10.2872L4.92325 11.5326L5.90378 10.2779C5.93786 10.2284 5.98897 10.2036 6.05713 10.2036C6.11289 10.2036 6.16091 10.2237 6.20119 10.264C6.24146 10.3012 6.2616 10.3476 6.2616 10.4034C6.2616 10.4468 6.24921 10.4855 6.22442 10.5196L5.15095 11.844L6.22442 13.1638C6.25231 13.1947 6.26625 13.235 6.26625 13.2846C6.26625 13.3403 6.24766 13.3899 6.21048 13.4333C6.17331 13.4736 6.12219 13.4937 6.05713 13.4937C5.98897 13.4937 5.93321 13.4643 5.88984 13.4054L4.89536 12.1553L3.91483 13.41C3.86836 13.4658 3.81415 13.4937 3.75219 13.4937ZM7.53907 13.4705C7.45852 13.4705 7.38882 13.4426 7.32995 13.3868C7.27419 13.3279 7.24631 13.2582 7.24631 13.1777V10.4173C7.24631 10.3585 7.26644 10.3089 7.30672 10.2686C7.34699 10.2253 7.39656 10.2036 7.45542 10.2036C7.51429 10.2036 7.56386 10.2253 7.60413 10.2686C7.6475 10.3089 7.66919 10.3585 7.66919 10.4173V13.0476H9.18878C9.24764 13.0476 9.29721 13.0693 9.33748 13.1126C9.38086 13.1529 9.40254 13.2025 9.40254 13.2613C9.40254 13.3202 9.38086 13.3698 9.33748 13.41C9.29721 13.4503 9.24764 13.4705 9.18878 13.4705H7.53907ZM11.2715 13.5169C11.0391 13.5169 10.83 13.4952 10.6441 13.4519C10.4613 13.4054 10.3018 13.3527 10.1655 13.2939C10.1314 13.2784 10.1004 13.2536 10.0725 13.2195C10.0477 13.1823 10.0353 13.1436 10.0353 13.1033C10.0353 13.0507 10.0524 13.0058 10.0865 12.9686C10.1205 12.9283 10.167 12.9082 10.2259 12.9082C10.2569 12.9082 10.2863 12.9144 10.3142 12.9268C10.4195 12.9732 10.5481 13.0166 10.6999 13.0569C10.8548 13.0971 11.0314 13.1173 11.2296 13.1173C11.3845 13.1173 11.5224 13.1018 11.6432 13.0708C11.7671 13.0367 11.8647 12.981 11.936 12.9035C12.0072 12.823 12.0429 12.7161 12.0429 12.5829C12.0429 12.4837 12.0072 12.4047 11.936 12.3459C11.8647 12.2839 11.7702 12.2328 11.6525 12.1925C11.5348 12.1522 11.4047 12.1151 11.2622 12.081C11.1228 12.0469 10.9833 12.0097 10.8439 11.9695C10.7045 11.9261 10.576 11.8703 10.4582 11.8022C10.3405 11.734 10.246 11.6473 10.1748 11.5419C10.1035 11.4335 10.0679 11.2972 10.0679 11.133C10.0679 10.9595 10.1128 10.8015 10.2026 10.659C10.2956 10.5134 10.4319 10.3972 10.6116 10.3105C10.7913 10.2237 11.0112 10.1803 11.2715 10.1803C11.4542 10.1803 11.6231 10.1943 11.778 10.2222C11.9329 10.25 12.0723 10.2872 12.1962 10.3337C12.2303 10.3461 12.2597 10.3662 12.2845 10.3941C12.3124 10.422 12.3263 10.4638 12.3263 10.5196C12.3263 10.566 12.3093 10.611 12.2752 10.6543C12.2442 10.6946 12.1993 10.7148 12.1405 10.7148C12.1281 10.7148 12.1157 10.7132 12.1033 10.7101C12.0909 10.7039 12.0785 10.6993 12.0661 10.6962C11.9608 10.659 11.8446 10.6296 11.7176 10.6079C11.5937 10.5831 11.4604 10.5707 11.3179 10.5707C11.0825 10.5707 10.8858 10.6156 10.7278 10.7055C10.5698 10.7953 10.4908 10.927 10.4908 11.1005C10.4908 11.2151 10.5264 11.3065 10.5976 11.3746C10.6689 11.4428 10.7634 11.497 10.8811 11.5373C10.9988 11.5776 11.1274 11.6147 11.2668 11.6488C11.4062 11.6798 11.5456 11.7154 11.685 11.7557C11.8245 11.796 11.953 11.8502 12.0708 11.9183C12.1885 11.9834 12.283 12.0717 12.3542 12.1832C12.4255 12.2917 12.4611 12.4342 12.4611 12.6108C12.4611 12.7842 12.4115 12.9407 12.3124 13.0801C12.2164 13.2164 12.0785 13.3233 11.8988 13.4008C11.7222 13.4782 11.5131 13.5169 11.2715 13.5169Z"/>
</mask>
<path d="M3.75219 13.4937C3.69952 13.4937 3.65305 13.4751 3.61277 13.4379C3.5756 13.3977 3.55701 13.3512 3.55701 13.2985C3.55701 13.2489 3.57095 13.2056 3.59883 13.1684L4.6723 11.8486L3.60813 10.5382C3.58025 10.501 3.5663 10.4576 3.5663 10.408C3.5663 10.3492 3.58489 10.3012 3.62207 10.264C3.66234 10.2237 3.71191 10.2036 3.77077 10.2036C3.84513 10.2036 3.90244 10.2315 3.94272 10.2872L4.92325 11.5326L5.90378 10.2779C5.93786 10.2284 5.98897 10.2036 6.05713 10.2036C6.11289 10.2036 6.16091 10.2237 6.20119 10.264C6.24146 10.3012 6.2616 10.3476 6.2616 10.4034C6.2616 10.4468 6.24921 10.4855 6.22442 10.5196L5.15095 11.844L6.22442 13.1638C6.25231 13.1947 6.26625 13.235 6.26625 13.2846C6.26625 13.3403 6.24766 13.3899 6.21048 13.4333C6.17331 13.4736 6.12219 13.4937 6.05713 13.4937C5.98897 13.4937 5.93321 13.4643 5.88984 13.4054L4.89536 12.1553L3.91483 13.41C3.86836 13.4658 3.81415 13.4937 3.75219 13.4937ZM7.53907 13.4705C7.45852 13.4705 7.38882 13.4426 7.32995 13.3868C7.27419 13.3279 7.24631 13.2582 7.24631 13.1777V10.4173C7.24631 10.3585 7.26644 10.3089 7.30672 10.2686C7.34699 10.2253 7.39656 10.2036 7.45542 10.2036C7.51429 10.2036 7.56386 10.2253 7.60413 10.2686C7.6475 10.3089 7.66919 10.3585 7.66919 10.4173V13.0476H9.18878C9.24764 13.0476 9.29721 13.0693 9.33748 13.1126C9.38086 13.1529 9.40254 13.2025 9.40254 13.2613C9.40254 13.3202 9.38086 13.3698 9.33748 13.41C9.29721 13.4503 9.24764 13.4705 9.18878 13.4705H7.53907ZM11.2715 13.5169C11.0391 13.5169 10.83 13.4952 10.6441 13.4519C10.4613 13.4054 10.3018 13.3527 10.1655 13.2939C10.1314 13.2784 10.1004 13.2536 10.0725 13.2195C10.0477 13.1823 10.0353 13.1436 10.0353 13.1033C10.0353 13.0507 10.0524 13.0058 10.0865 12.9686C10.1205 12.9283 10.167 12.9082 10.2259 12.9082C10.2569 12.9082 10.2863 12.9144 10.3142 12.9268C10.4195 12.9732 10.5481 13.0166 10.6999 13.0569C10.8548 13.0971 11.0314 13.1173 11.2296 13.1173C11.3845 13.1173 11.5224 13.1018 11.6432 13.0708C11.7671 13.0367 11.8647 12.981 11.936 12.9035C12.0072 12.823 12.0429 12.7161 12.0429 12.5829C12.0429 12.4837 12.0072 12.4047 11.936 12.3459C11.8647 12.2839 11.7702 12.2328 11.6525 12.1925C11.5348 12.1522 11.4047 12.1151 11.2622 12.081C11.1228 12.0469 10.9833 12.0097 10.8439 11.9695C10.7045 11.9261 10.576 11.8703 10.4582 11.8022C10.3405 11.734 10.246 11.6473 10.1748 11.5419C10.1035 11.4335 10.0679 11.2972 10.0679 11.133C10.0679 10.9595 10.1128 10.8015 10.2026 10.659C10.2956 10.5134 10.4319 10.3972 10.6116 10.3105C10.7913 10.2237 11.0112 10.1803 11.2715 10.1803C11.4542 10.1803 11.6231 10.1943 11.778 10.2222C11.9329 10.25 12.0723 10.2872 12.1962 10.3337C12.2303 10.3461 12.2597 10.3662 12.2845 10.3941C12.3124 10.422 12.3263 10.4638 12.3263 10.5196C12.3263 10.566 12.3093 10.611 12.2752 10.6543C12.2442 10.6946 12.1993 10.7148 12.1405 10.7148C12.1281 10.7148 12.1157 10.7132 12.1033 10.7101C12.0909 10.7039 12.0785 10.6993 12.0661 10.6962C11.9608 10.659 11.8446 10.6296 11.7176 10.6079C11.5937 10.5831 11.4604 10.5707 11.3179 10.5707C11.0825 10.5707 10.8858 10.6156 10.7278 10.7055C10.5698 10.7953 10.4908 10.927 10.4908 11.1005C10.4908 11.2151 10.5264 11.3065 10.5976 11.3746C10.6689 11.4428 10.7634 11.497 10.8811 11.5373C10.9988 11.5776 11.1274 11.6147 11.2668 11.6488C11.4062 11.6798 11.5456 11.7154 11.685 11.7557C11.8245 11.796 11.953 11.8502 12.0708 11.9183C12.1885 11.9834 12.283 12.0717 12.3542 12.1832C12.4255 12.2917 12.4611 12.4342 12.4611 12.6108C12.4611 12.7842 12.4115 12.9407 12.3124 13.0801C12.2164 13.2164 12.0785 13.3233 11.8988 13.4008C11.7222 13.4782 11.5131 13.5169 11.2715 13.5169Z" fill="white"/>
<path d="M3.61277 13.4379L3.52605 13.518L3.53298 13.5244L3.61277 13.4379ZM3.59883 13.1684L3.50749 13.0941L3.50472 13.0978L3.59883 13.1684ZM4.6723 11.8486L4.76357 11.9229L4.82391 11.8487L4.76363 11.7745L4.6723 11.8486ZM3.60813 10.5382L3.51394 10.6088L3.5168 10.6123L3.60813 10.5382ZM3.62207 10.264L3.53888 10.1808L3.53888 10.1808L3.62207 10.264ZM3.94272 10.2872L3.84726 10.3562L3.85028 10.36L3.94272 10.2872ZM4.92325 11.5326L4.83081 11.6054L4.92359 11.7233L5.01594 11.6051L4.92325 11.5326ZM5.90378 10.2779L5.99665 10.3505L6.00072 10.3446L5.90378 10.2779ZM6.20119 10.264L6.11793 10.3472L6.12139 10.3504L6.20119 10.264ZM6.22442 10.5196L6.31595 10.5938L6.31957 10.5888L6.22442 10.5196ZM5.15095 11.844L5.05956 11.7699L4.99941 11.8441L5.05968 11.9182L5.15095 11.844ZM6.22442 13.1638L6.13304 13.2381L6.13698 13.2425L6.22442 13.1638ZM6.21048 13.4333L6.29699 13.5131L6.29981 13.5098L6.21048 13.4333ZM5.88984 13.4054L5.98461 13.3356L5.9819 13.3322L5.88984 13.4054ZM4.89536 12.1553L4.98743 12.0821L4.89454 11.9653L4.80267 12.0829L4.89536 12.1553ZM3.91483 13.41L4.00526 13.4854L4.00753 13.4825L3.91483 13.41ZM3.75219 13.376C3.7304 13.376 3.71209 13.3695 3.69257 13.3515L3.53298 13.5244C3.59401 13.5807 3.66864 13.6113 3.75219 13.6113V13.376ZM3.69922 13.3581C3.68121 13.3386 3.67466 13.3203 3.67466 13.2985H3.43936C3.43936 13.3821 3.46999 13.4567 3.52633 13.5177L3.69922 13.3581ZM3.67466 13.2985C3.67466 13.2726 3.68139 13.2544 3.69295 13.239L3.50472 13.0978C3.46051 13.1568 3.43936 13.2253 3.43936 13.2985H3.67466ZM3.6901 13.2426L4.76357 11.9229L4.58104 11.7744L3.50757 13.0942L3.6901 13.2426ZM4.76363 11.7745L3.69945 10.464L3.5168 10.6123L4.58098 11.9228L4.76363 11.7745ZM3.70225 10.4676C3.69069 10.4522 3.68395 10.434 3.68395 10.408H3.44866C3.44866 10.4813 3.4698 10.5498 3.51401 10.6088L3.70225 10.4676ZM3.68395 10.408C3.68395 10.3763 3.69287 10.3596 3.70526 10.3472L3.53888 10.1808C3.47691 10.2428 3.44866 10.3221 3.44866 10.408H3.68395ZM3.70526 10.3472C3.72266 10.3298 3.74195 10.3212 3.77077 10.3212V10.0859C3.68188 10.0859 3.60203 10.1176 3.53888 10.1808L3.70526 10.3472ZM3.77077 10.3212C3.81092 10.3212 3.8312 10.3337 3.84734 10.3561L4.03809 10.2183C3.97369 10.1292 3.87933 10.0859 3.77077 10.0859V10.3212ZM3.85028 10.36L4.83081 11.6054L5.01568 11.4599L4.03515 10.2144L3.85028 10.36ZM5.01594 11.6051L5.99647 10.3504L5.81108 10.2055L4.83055 11.4602L5.01594 11.6051ZM6.00072 10.3446C6.00966 10.3316 6.02172 10.3212 6.05713 10.3212V10.0859C5.95623 10.0859 5.86605 10.1251 5.80683 10.2113L6.00072 10.3446ZM6.05713 10.3212C6.08095 10.3212 6.09926 10.3284 6.118 10.3472L6.28438 10.1808C6.22257 10.119 6.14484 10.0859 6.05713 10.0859V10.3212ZM6.12139 10.3504C6.13706 10.3649 6.14395 10.3798 6.14395 10.4034H6.37925C6.37925 10.3154 6.34586 10.2374 6.28099 10.1775L6.12139 10.3504ZM6.14395 10.4034C6.14395 10.4227 6.13899 10.437 6.12928 10.4504L6.31957 10.5888C6.35943 10.534 6.37925 10.4709 6.37925 10.4034H6.14395ZM6.13303 10.4455L5.05956 11.7699L5.24235 11.9181L6.31582 10.5937L6.13303 10.4455ZM5.05968 11.9182L6.13316 13.238L6.31569 13.0895L5.24222 11.7698L5.05968 11.9182ZM6.13698 13.2425C6.14185 13.2479 6.1486 13.2583 6.1486 13.2846H6.38389C6.38389 13.2118 6.36276 13.1416 6.31187 13.0851L6.13698 13.2425ZM6.1486 13.2846C6.1486 13.3115 6.14055 13.3341 6.12116 13.3567L6.29981 13.5098C6.35477 13.4457 6.38389 13.3692 6.38389 13.2846H6.1486ZM6.12404 13.3535C6.11329 13.3651 6.09603 13.376 6.05713 13.376V13.6113C6.14834 13.6113 6.23332 13.582 6.29693 13.5131L6.12404 13.3535ZM6.05713 13.376C6.02942 13.376 6.00763 13.3669 5.98455 13.3356L5.79512 13.4752C5.85879 13.5616 5.94853 13.6113 6.05713 13.6113V13.376ZM5.9819 13.3322L4.98743 12.0821L4.8033 12.2286L5.79777 13.4786L5.9819 13.3322ZM4.80267 12.0829L3.82214 13.3376L4.00753 13.4825L4.98806 12.2278L4.80267 12.0829ZM3.82445 13.3347C3.79607 13.3688 3.77308 13.376 3.75219 13.376V13.6113C3.85521 13.6113 3.94065 13.5628 4.00521 13.4854L3.82445 13.3347ZM7.32995 13.3868L7.24442 13.4678L7.24904 13.4722L7.32995 13.3868ZM7.30672 10.2686L7.38996 10.3519L7.39293 10.3487L7.30672 10.2686ZM7.60413 10.2686L7.51768 10.3489L7.52408 10.3548L7.60413 10.2686ZM7.66919 13.0476H7.55154V13.1652H7.66919V13.0476ZM9.33748 13.1126L9.25104 13.1929L9.25743 13.1988L9.33748 13.1126ZM9.33748 13.41L9.25738 13.3238L9.2543 13.3269L9.33748 13.41ZM7.53907 13.3528C7.48885 13.3528 7.44804 13.3366 7.41086 13.3014L7.24904 13.4722C7.3296 13.5485 7.4282 13.5881 7.53907 13.5881V13.3528ZM7.41536 13.3059C7.38014 13.2687 7.36395 13.2279 7.36395 13.1777H7.12866C7.12866 13.2886 7.16823 13.3872 7.24455 13.4677L7.41536 13.3059ZM7.36395 13.1777V10.4173H7.12866V13.1777H7.36395ZM7.36395 10.4173C7.36395 10.3885 7.37251 10.3692 7.38991 10.3518L7.22353 10.1854C7.16038 10.2486 7.12866 10.3284 7.12866 10.4173H7.36395ZM7.39293 10.3487C7.41108 10.3291 7.42948 10.3212 7.45542 10.3212V10.0859C7.36364 10.0859 7.2829 10.1214 7.22051 10.1886L7.39293 10.3487ZM7.45542 10.3212C7.48137 10.3212 7.49976 10.3291 7.51792 10.3487L7.69034 10.1886C7.62795 10.1214 7.54721 10.0859 7.45542 10.0859V10.3212ZM7.52408 10.3548C7.54363 10.373 7.55154 10.3914 7.55154 10.4173H7.78684C7.78684 10.3256 7.75138 10.2448 7.68418 10.1824L7.52408 10.3548ZM7.55154 10.4173V13.0476H7.78684V10.4173H7.55154ZM7.66919 13.1652H9.18878V12.9299H7.66919V13.1652ZM9.18878 13.1652C9.21472 13.1652 9.23312 13.1731 9.25127 13.1927L9.4237 13.0326C9.3613 12.9654 9.28056 12.9299 9.18878 12.9299V13.1652ZM9.25743 13.1988C9.27698 13.217 9.2849 13.2354 9.2849 13.2613H9.52019C9.52019 13.1696 9.48473 13.0888 9.41754 13.0264L9.25743 13.1988ZM9.2849 13.2613C9.2849 13.2873 9.27698 13.3057 9.25743 13.3238L9.41754 13.4963C9.48473 13.4339 9.52019 13.3531 9.52019 13.2613H9.2849ZM9.2543 13.3269C9.2369 13.3443 9.21761 13.3528 9.18878 13.3528V13.5881C9.27768 13.5881 9.35752 13.5564 9.42067 13.4932L9.2543 13.3269ZM9.18878 13.3528H7.53907V13.5881H9.18878V13.3528ZM10.6441 13.4519L10.6151 13.5659L10.6174 13.5664L10.6441 13.4519ZM10.1655 13.2939L10.1168 13.401L10.1188 13.4019L10.1655 13.2939ZM10.0725 13.2195L9.97416 13.2851L9.98146 13.294L10.0725 13.2195ZM10.0865 12.9686L10.1733 13.0481L10.1763 13.0446L10.0865 12.9686ZM10.3142 12.9268L10.2664 13.0343L10.2667 13.0344L10.3142 12.9268ZM10.6999 13.0569L10.6697 13.1706L10.6703 13.1707L10.6999 13.0569ZM11.6432 13.0708L11.6725 13.1848L11.6744 13.1842L11.6432 13.0708ZM11.936 12.9035L12.0226 12.9832L12.0241 12.9815L11.936 12.9035ZM11.936 12.3459L11.8588 12.4347L11.8611 12.4366L11.936 12.3459ZM11.6525 12.1925L11.6144 12.3038L11.6525 12.1925ZM11.2622 12.081L11.2342 12.1953L11.2348 12.1954L11.2622 12.081ZM10.8439 11.9695L10.809 12.0818L10.8113 12.0825L10.8439 11.9695ZM10.4582 11.8022L10.5172 11.7003H10.5172L10.4582 11.8022ZM10.1748 11.5419L10.0764 11.6065L10.0773 11.6078L10.1748 11.5419ZM10.2026 10.659L10.1035 10.5957L10.1031 10.5962L10.2026 10.659ZM10.6116 10.3105L10.6627 10.4164L10.6116 10.3105ZM11.778 10.2222L11.7988 10.1064V10.1064L11.778 10.2222ZM12.1962 10.3337L12.1549 10.4439L12.156 10.4443L12.1962 10.3337ZM12.2845 10.3941L12.1964 10.4724L12.2013 10.4773L12.2845 10.3941ZM12.2752 10.6543L12.1827 10.5817L12.182 10.5826L12.2752 10.6543ZM12.1033 10.7101L12.0507 10.8153L12.0622 10.8211L12.0748 10.8242L12.1033 10.7101ZM12.0661 10.6962L12.0268 10.8076L12.0376 10.8103L12.0661 10.6962ZM11.7176 10.6079L11.6945 10.7233L11.6978 10.7238L11.7176 10.6079ZM10.7278 10.7055L10.6696 10.6032L10.7278 10.7055ZM10.5976 11.3746L10.679 11.2896L10.5976 11.3746ZM10.8811 11.5373L10.843 11.6486L10.8811 11.5373ZM11.2668 11.6488L11.2389 11.7631L11.2413 11.7637L11.2668 11.6488ZM11.6851 11.7557L11.6524 11.8687L11.6851 11.7557ZM12.0708 11.9183L12.0118 12.0202L12.0139 12.0213L12.0708 11.9183ZM12.3542 12.1832L12.2551 12.2466L12.2559 12.2478L12.3542 12.1832ZM12.3124 13.0801L12.2165 13.0119L12.2162 13.0123L12.3124 13.0801ZM11.8988 13.4008L11.8522 13.2927L11.8516 13.293L11.8988 13.4008ZM11.2715 13.3993C11.0462 13.3993 10.8463 13.3782 10.6708 13.3373L10.6174 13.5664C10.8137 13.6122 11.032 13.6346 11.2715 13.6346V13.3993ZM10.6731 13.3379C10.4948 13.2925 10.3414 13.2417 10.2121 13.1859L10.1188 13.4019C10.2621 13.4638 10.4278 13.5183 10.6151 13.5659L10.6731 13.3379ZM10.2141 13.1868C10.1992 13.18 10.182 13.1676 10.1636 13.145L9.98146 13.294C10.0188 13.3396 10.0636 13.3768 10.1168 13.401L10.2141 13.1868ZM10.1704 13.1543C10.157 13.1342 10.153 13.1179 10.153 13.1033H9.9177C9.9177 13.1693 9.93843 13.2305 9.97463 13.2848L10.1704 13.1543ZM10.153 13.1033C10.153 13.0787 10.1599 13.0625 10.1732 13.0481L9.99974 12.8891C9.94482 12.949 9.9177 13.0227 9.9177 13.1033H10.153ZM10.1763 13.0446C10.1852 13.034 10.1971 13.0258 10.2259 13.0258V12.7905C10.1369 12.7905 10.0558 12.8226 9.99665 12.8926L10.1763 13.0446ZM10.2259 13.0258C10.2407 13.0258 10.2538 13.0287 10.2664 13.0343L10.3619 12.8192C10.3188 12.8001 10.2731 12.7905 10.2259 12.7905V13.0258ZM10.2667 13.0344C10.3792 13.084 10.514 13.1293 10.6697 13.1706L10.73 12.9432C10.5822 12.9039 10.4598 12.8624 10.3617 12.8191L10.2667 13.0344ZM10.6703 13.1707C10.8368 13.214 11.0236 13.2349 11.2296 13.2349V12.9996C11.0391 12.9996 10.8727 12.9803 10.7295 12.943L10.6703 13.1707ZM11.2296 13.2349C11.3921 13.2349 11.5401 13.2187 11.6724 13.1848L11.614 12.9569C11.5047 12.9849 11.377 12.9996 11.2296 12.9996V13.2349ZM11.6744 13.1842C11.8149 13.1456 11.9334 13.0801 12.0226 12.9832L11.8494 12.8239C11.7961 12.8818 11.7194 12.9278 11.612 12.9574L11.6744 13.1842ZM12.0241 12.9815C12.1186 12.8746 12.1605 12.7377 12.1605 12.5829H11.9252C11.9252 12.6945 11.8959 12.7713 11.8479 12.8256L12.0241 12.9815ZM12.1605 12.5829C12.1605 12.4516 12.1114 12.3382 12.0109 12.2552L11.8611 12.4366C11.9031 12.4713 11.9252 12.5159 11.9252 12.5829H12.1605ZM12.0132 12.2571C11.9275 12.1825 11.8184 12.1249 11.6906 12.0812L11.6144 12.3038C11.7221 12.3407 11.802 12.3853 11.8588 12.4346L12.0132 12.2571ZM11.6906 12.0812C11.5688 12.0395 11.435 12.0014 11.2895 11.9666L11.2348 12.1954C11.3743 12.2288 11.5008 12.2649 11.6144 12.3038L11.6906 12.0812ZM11.2901 11.9667C11.1523 11.933 11.0144 11.8963 10.8766 11.8564L10.8113 12.0825C10.9522 12.1232 11.0932 12.1608 11.2342 12.1953L11.2901 11.9667ZM10.8789 11.8571C10.7472 11.8162 10.6268 11.7638 10.5172 11.7003L10.3993 11.904C10.5251 11.9768 10.6618 12.036 10.809 12.0818L10.8789 11.8571ZM10.5172 11.7003C10.4137 11.6405 10.3328 11.5656 10.2722 11.476L10.0773 11.6078C10.1592 11.7289 10.2673 11.8276 10.3993 11.904L10.5172 11.7003ZM10.2731 11.4773C10.2174 11.3926 10.1855 11.2803 10.1855 11.133H9.95022C9.95022 11.3141 9.98961 11.4744 10.0764 11.6065L10.2731 11.4773ZM10.1855 11.133C10.1855 10.981 10.2245 10.8449 10.3022 10.7217L10.1031 10.5962C10.0011 10.7581 9.95022 10.938 9.95022 11.133H10.1855ZM10.3018 10.7223C10.3813 10.5978 10.4996 10.4952 10.6627 10.4164L10.5604 10.2045C10.3642 10.2992 10.2099 10.429 10.1035 10.5957L10.3018 10.7223ZM10.6627 10.4164C10.8224 10.3393 11.0238 10.298 11.2715 10.298V10.0627C10.9987 10.0627 10.7602 10.1081 10.5604 10.2045L10.6627 10.4164ZM11.2715 10.298C11.4483 10.298 11.6101 10.3115 11.7571 10.3379L11.7988 10.1064C11.6361 10.0771 11.4601 10.0627 11.2715 10.0627V10.298ZM11.7571 10.3379C11.9063 10.3648 12.0387 10.4003 12.1549 10.4438L12.2375 10.2235C12.1059 10.1742 11.9594 10.1353 11.7988 10.1064L11.7571 10.3379ZM12.156 10.4443C12.1712 10.4498 12.1844 10.4585 12.1966 10.4723L12.3725 10.3159C12.3351 10.2739 12.2894 10.2424 12.2364 10.2231L12.156 10.4443ZM12.2013 10.4773C12.2013 10.4773 12.2014 10.4773 12.2015 10.4774C12.2015 10.4775 12.2017 10.4778 12.2019 10.4782C12.2024 10.4789 12.2033 10.4806 12.2043 10.4836C12.2064 10.4898 12.2087 10.5011 12.2087 10.5196H12.444C12.444 10.4457 12.4254 10.3686 12.3677 10.3109L12.2013 10.4773ZM12.2087 10.5196C12.2087 10.535 12.2037 10.555 12.1827 10.5817L12.3677 10.727C12.4149 10.6669 12.444 10.5971 12.444 10.5196H12.2087ZM12.182 10.5826C12.177 10.5891 12.1693 10.5971 12.1405 10.5971V10.8324C12.2293 10.8324 12.3115 10.8001 12.3685 10.7261L12.182 10.5826ZM12.1405 10.5971C12.138 10.5971 12.1352 10.5968 12.1318 10.596L12.0748 10.8242C12.0962 10.8296 12.1182 10.8324 12.1405 10.8324V10.5971ZM12.1559 10.6049C12.1365 10.5952 12.116 10.5874 12.0946 10.582L12.0376 10.8103C12.041 10.8111 12.0453 10.8127 12.0507 10.8153L12.1559 10.6049ZM12.1053 10.5852C11.9928 10.5455 11.87 10.5145 11.7374 10.4919L11.6978 10.7238C11.8192 10.7446 11.9288 10.7725 12.027 10.8071L12.1053 10.5852ZM11.7407 10.4925C11.6082 10.466 11.4672 10.453 11.3179 10.453V10.6883C11.4537 10.6883 11.5791 10.7001 11.6945 10.7232L11.7407 10.4925ZM11.3179 10.453C11.068 10.453 10.8498 10.5007 10.6696 10.6032L10.7859 10.8077C10.9217 10.7305 11.097 10.6883 11.3179 10.6883V10.453ZM10.6696 10.6032C10.477 10.7127 10.3731 10.8822 10.3731 11.1005H10.6084C10.6084 10.9717 10.6625 10.8779 10.7859 10.8077L10.6696 10.6032ZM10.3731 11.1005C10.3731 11.2415 10.4181 11.3657 10.5163 11.4597L10.679 11.2896C10.6347 11.2473 10.6084 11.1887 10.6084 11.1005H10.3731ZM10.5163 11.4597C10.6027 11.5423 10.7132 11.6042 10.843 11.6486L10.9192 11.426C10.8135 11.3898 10.7351 11.3433 10.679 11.2896L10.5163 11.4597ZM10.843 11.6486C10.9645 11.6902 11.0965 11.7283 11.2389 11.7631L11.2947 11.5345C11.1583 11.5012 11.0331 11.4649 10.9192 11.426L10.843 11.6486ZM11.2413 11.7637C11.3783 11.7941 11.5153 11.8291 11.6524 11.8687L11.7177 11.6427C11.576 11.6017 11.4342 11.5655 11.2923 11.534L11.2413 11.7637ZM11.6524 11.8687C11.7832 11.9065 11.9029 11.9571 12.0118 12.0202L12.1297 11.8165C12.0032 11.7433 11.8657 11.6854 11.7177 11.6427L11.6524 11.8687ZM12.0139 12.0213C12.1147 12.077 12.1946 12.1518 12.2551 12.2466L12.4534 12.1199C12.3714 11.9916 12.2623 11.8898 12.1277 11.8154L12.0139 12.0213ZM12.2559 12.2478C12.3108 12.3313 12.3435 12.4491 12.3435 12.6108H12.5788C12.5788 12.4193 12.5402 12.252 12.4525 12.1186L12.2559 12.2478ZM12.3435 12.6108C12.3435 12.7602 12.3013 12.8927 12.2165 13.0119L12.4083 13.1483C12.5218 12.9887 12.5788 12.8083 12.5788 12.6108H12.3435ZM12.2162 13.0123C12.1347 13.128 12.0155 13.2223 11.8522 13.2927L11.9454 13.5088C12.1415 13.4243 12.298 13.3048 12.4086 13.1479L12.2162 13.0123ZM11.8516 13.293C11.6931 13.3625 11.5008 13.3993 11.2715 13.3993V13.6346C11.5254 13.6346 11.7513 13.5939 11.9461 13.5085L11.8516 13.293Z" fill="white" mask="url(#path-5-outside-1_97_37994)"/>
<g filter="url(#filter1_d_97_37994)">
<path d="M16 6.94092H11.2941C10.5794 6.94092 10 6.36153 10 5.64681V0.940918L16 6.94092Z" fill="url(#paint2_linear_97_37994)"/>
</g>
</g>
<defs>
<filter id="filter0_f_97_37994" x="0.529122" y="7.41157" width="15.0589" height="9.5294" filterUnits="userSpaceOnUse" color-interpolation-filters="sRGB">
<feFlood flood-opacity="0" result="BackgroundImageFix"/>
<feBlend mode="normal" in="SourceGraphic" in2="BackgroundImageFix" result="shape"/>
<feGaussianBlur stdDeviation="1.14706" result="effect1_foregroundBlur_97_37994"/>
</filter>
<filter id="filter1_d_97_37994" x="8.64706" y="-0.470848" width="8.94118" height="8.94118" filterUnits="userSpaceOnUse" color-interpolation-filters="sRGB">
<feFlood flood-opacity="0" result="BackgroundImageFix"/>
<feColorMatrix in="SourceAlpha" type="matrix" values="0 0 0 0 0 0 0 0 0 0 0 0 0 0 0 0 0 0 127 0" result="hardAlpha"/>
<feOffset dx="0.117647" dy="0.0588236"/>
<feGaussianBlur stdDeviation="0.735295"/>
<feColorMatrix type="matrix" values="0 0 0 0 0 0 0 0 0 0 0 0 0 0 0 0 0 0 0.33 0"/>
<feBlend mode="normal" in2="BackgroundImageFix" result="effect1_dropShadow_97_37994"/>
<feBlend mode="normal" in="SourceGraphic" in2="effect1_dropShadow_97_37994" result="shape"/>
</filter>
<linearGradient id="paint0_linear_97_37994" x1="7.99952" y1="0.941162" x2="7.99952" y2="19.0588" gradientUnits="userSpaceOnUse">
<stop stop-color="#FF7979"/>
<stop offset="1" stop-color="#E85555"/>
</linearGradient>
<linearGradient id="paint1_linear_97_37994" x1="8.00001" y1="0.940918" x2="8.00001" y2="19.0586" gradientUnits="userSpaceOnUse">
<stop offset="0.000265127" stop-color="#83CC70"/>
<stop offset="1" stop-color="#61A850"/>
</linearGradient>
<linearGradient id="paint2_linear_97_37994" x1="13" y1="0.940918" x2="13" y2="6.94092" gradientUnits="userSpaceOnUse">
<stop stop-color="#3FAF43"/>
<stop offset="1" stop-color="#0E8312"/>
</linearGradient>
</defs>
</svg>
