<svg width="16" height="20" viewBox="0 0 16 20" fill="none" xmlns="http://www.w3.org/2000/svg">
<mask id="mask0_97_37939" style="mask-type:alpha" maskUnits="userSpaceOnUse" x="0" y="0" width="16" height="20">
<path d="M14.7059 19.0587H1.29412C0.579397 19.0587 0 18.4793 0 17.7646V2.23516C0 1.52044 0.579397 0.94104 1.29412 0.94104H10L16 6.94105V17.7646C16 18.4793 15.4206 19.0587 14.7059 19.0587Z" fill="url(#paint0_linear_97_37939)"/>
</mask>
<g mask="url(#mask0_97_37939)">
<path d="M14.7059 19.0588H1.29412C0.579397 19.0588 0 18.4794 0 17.7647V2.23528C0 1.52056 0.579397 0.941162 1.29412 0.941162H10L16 6.94117V17.7647C16 18.4794 15.4206 19.0588 14.7059 19.0588Z" fill="url(#paint1_linear_97_37939)"/>
<path opacity="0.12" fill-rule="evenodd" clip-rule="evenodd" d="M11.7057 9.11763H4.29395V8.41174H11.7057V9.11763ZM11.7057 10.8824H4.29395V10.1765H11.7057V10.8824ZM4.29395 12.6471H11.7057V11.9412H4.29395V12.6471ZM11.7057 14.4118H4.29395V13.7059H11.7057V14.4118ZM4.29395 16.1766H11.7057V15.4707H4.29395V16.1766Z" fill="white"/>
<mask id="path-4-outside-1_97_37939" maskUnits="userSpaceOnUse" x="3" y="9.47058" width="11" height="5" fill="black">
<rect fill="white" x="3" y="9.47058" width="11" height="5"/>
<path d="M3.65988 13.4938C3.60102 13.4938 3.55145 13.4737 3.51118 13.4334C3.4709 13.3931 3.45077 13.3436 3.45077 13.2847V10.4407C3.45077 10.3818 3.4709 10.3323 3.51118 10.292C3.55145 10.2486 3.60102 10.2269 3.65988 10.2269H4.71941C4.95486 10.2269 5.15159 10.2579 5.30959 10.3199C5.47069 10.3787 5.59771 10.4593 5.69065 10.5615C5.78669 10.6607 5.85485 10.7706 5.89512 10.8915C5.93849 11.0123 5.96018 11.1347 5.96018 11.2586C5.96018 11.3825 5.93849 11.5049 5.89512 11.6257C5.85485 11.7465 5.78669 11.8581 5.69065 11.9603C5.59771 12.0594 5.47069 12.14 5.30959 12.2019C5.15159 12.2608 4.95486 12.2902 4.71941 12.2902H3.87365V13.2847C3.87365 13.3436 3.85196 13.3931 3.80859 13.4334C3.76831 13.4737 3.71875 13.4938 3.65988 13.4938ZM3.87365 11.8906H4.67759C4.90994 11.8906 5.08808 11.8596 5.212 11.7976C5.33592 11.7326 5.42112 11.652 5.46759 11.556C5.51406 11.4569 5.5373 11.3577 5.5373 11.2586C5.5373 11.1563 5.51406 11.0572 5.46759 10.9612C5.42112 10.8651 5.33592 10.7861 5.212 10.7242C5.08808 10.6591 4.90994 10.6266 4.67759 10.6266H3.87365V11.8906ZM7.10742 13.4706C7.04856 13.4706 6.99899 13.4504 6.95872 13.4102C6.91844 13.3699 6.8983 13.3203 6.8983 13.2615V10.4407C6.8983 10.3818 6.91844 10.3323 6.95872 10.292C6.99899 10.2486 7.04856 10.2269 7.10742 10.2269H8.04148C8.32031 10.2269 8.56195 10.275 8.76642 10.371C8.97089 10.4639 9.14129 10.5894 9.2776 10.7474C9.41392 10.9023 9.5146 11.0758 9.57966 11.2679C9.64782 11.46 9.6819 11.6536 9.6819 11.8488C9.6819 12.0439 9.64782 12.2376 9.57966 12.4296C9.5146 12.6217 9.41392 12.7968 9.2776 12.9548C9.14129 13.1097 8.97089 13.2351 8.76642 13.3312C8.56195 13.4241 8.32031 13.4706 8.04148 13.4706H7.10742ZM7.32119 13.0756H7.99036C8.2506 13.0756 8.47521 13.0245 8.66419 12.9222C8.85627 12.8169 9.00342 12.6728 9.10566 12.4901C9.21099 12.3042 9.26366 12.0904 9.26366 11.8488C9.26366 11.6071 9.21099 11.3949 9.10566 11.2121C9.00342 11.0262 8.85627 10.8822 8.66419 10.7799C8.47521 10.6746 8.2506 10.6219 7.99036 10.6219H7.32119V13.0756ZM10.9226 13.4938C10.8637 13.4938 10.8141 13.4737 10.7738 13.4334C10.7336 13.3931 10.7134 13.3436 10.7134 13.2847V10.4407C10.7134 10.3818 10.7336 10.3323 10.7738 10.292C10.8141 10.2486 10.8637 10.2269 10.9226 10.2269H12.7303C12.786 10.2269 12.8325 10.2471 12.8697 10.2873C12.9099 10.3245 12.9301 10.371 12.9301 10.4268C12.9301 10.4825 12.9099 10.529 12.8697 10.5662C12.8325 10.6033 12.786 10.6219 12.7303 10.6219H11.1363V11.6489H12.5676C12.6234 11.6489 12.6698 11.6691 12.707 11.7093C12.7473 11.7465 12.7674 11.793 12.7674 11.8488C12.7674 11.9045 12.7473 11.951 12.707 11.9882C12.6698 12.0253 12.6234 12.0439 12.5676 12.0439H11.1363V13.2847C11.1363 13.3436 11.1146 13.3931 11.0713 13.4334C11.031 13.4737 10.9814 13.4938 10.9226 13.4938Z"/>
</mask>
<path d="M3.65988 13.4938C3.60102 13.4938 3.55145 13.4737 3.51118 13.4334C3.4709 13.3931 3.45077 13.3436 3.45077 13.2847V10.4407C3.45077 10.3818 3.4709 10.3323 3.51118 10.292C3.55145 10.2486 3.60102 10.2269 3.65988 10.2269H4.71941C4.95486 10.2269 5.15159 10.2579 5.30959 10.3199C5.47069 10.3787 5.59771 10.4593 5.69065 10.5615C5.78669 10.6607 5.85485 10.7706 5.89512 10.8915C5.93849 11.0123 5.96018 11.1347 5.96018 11.2586C5.96018 11.3825 5.93849 11.5049 5.89512 11.6257C5.85485 11.7465 5.78669 11.8581 5.69065 11.9603C5.59771 12.0594 5.47069 12.14 5.30959 12.2019C5.15159 12.2608 4.95486 12.2902 4.71941 12.2902H3.87365V13.2847C3.87365 13.3436 3.85196 13.3931 3.80859 13.4334C3.76831 13.4737 3.71875 13.4938 3.65988 13.4938ZM3.87365 11.8906H4.67759C4.90994 11.8906 5.08808 11.8596 5.212 11.7976C5.33592 11.7326 5.42112 11.652 5.46759 11.556C5.51406 11.4569 5.5373 11.3577 5.5373 11.2586C5.5373 11.1563 5.51406 11.0572 5.46759 10.9612C5.42112 10.8651 5.33592 10.7861 5.212 10.7242C5.08808 10.6591 4.90994 10.6266 4.67759 10.6266H3.87365V11.8906ZM7.10742 13.4706C7.04856 13.4706 6.99899 13.4504 6.95872 13.4102C6.91844 13.3699 6.8983 13.3203 6.8983 13.2615V10.4407C6.8983 10.3818 6.91844 10.3323 6.95872 10.292C6.99899 10.2486 7.04856 10.2269 7.10742 10.2269H8.04148C8.32031 10.2269 8.56195 10.275 8.76642 10.371C8.97089 10.4639 9.14129 10.5894 9.2776 10.7474C9.41392 10.9023 9.5146 11.0758 9.57966 11.2679C9.64782 11.46 9.6819 11.6536 9.6819 11.8488C9.6819 12.0439 9.64782 12.2376 9.57966 12.4296C9.5146 12.6217 9.41392 12.7968 9.2776 12.9548C9.14129 13.1097 8.97089 13.2351 8.76642 13.3312C8.56195 13.4241 8.32031 13.4706 8.04148 13.4706H7.10742ZM7.32119 13.0756H7.99036C8.2506 13.0756 8.47521 13.0245 8.66419 12.9222C8.85627 12.8169 9.00342 12.6728 9.10566 12.4901C9.21099 12.3042 9.26366 12.0904 9.26366 11.8488C9.26366 11.6071 9.21099 11.3949 9.10566 11.2121C9.00342 11.0262 8.85627 10.8822 8.66419 10.7799C8.47521 10.6746 8.2506 10.6219 7.99036 10.6219H7.32119V13.0756ZM10.9226 13.4938C10.8637 13.4938 10.8141 13.4737 10.7738 13.4334C10.7336 13.3931 10.7134 13.3436 10.7134 13.2847V10.4407C10.7134 10.3818 10.7336 10.3323 10.7738 10.292C10.8141 10.2486 10.8637 10.2269 10.9226 10.2269H12.7303C12.786 10.2269 12.8325 10.2471 12.8697 10.2873C12.9099 10.3245 12.9301 10.371 12.9301 10.4268C12.9301 10.4825 12.9099 10.529 12.8697 10.5662C12.8325 10.6033 12.786 10.6219 12.7303 10.6219H11.1363V11.6489H12.5676C12.6234 11.6489 12.6698 11.6691 12.707 11.7093C12.7473 11.7465 12.7674 11.793 12.7674 11.8488C12.7674 11.9045 12.7473 11.951 12.707 11.9882C12.6698 12.0253 12.6234 12.0439 12.5676 12.0439H11.1363V13.2847C11.1363 13.3436 11.1146 13.3931 11.0713 13.4334C11.031 13.4737 10.9814 13.4938 10.9226 13.4938Z" fill="white"/>
<path d="M3.51118 13.4334L3.59437 13.3502L3.51118 13.4334ZM3.51118 10.292L3.59442 10.3752L3.59739 10.372L3.51118 10.292ZM5.30959 10.3199L5.26663 10.4294L5.26921 10.4304L5.30959 10.3199ZM5.69065 10.5615L5.60355 10.6407L5.60615 10.6434L5.69065 10.5615ZM5.89512 10.8915L5.78348 10.9287L5.78439 10.9312L5.89512 10.8915ZM5.89512 11.6257L5.78436 11.5859L5.78351 11.5885L5.89512 11.6257ZM5.69065 11.9603L5.6049 11.8797L5.60482 11.8798L5.69065 11.9603ZM5.30959 12.2019L5.35066 12.3122L5.35182 12.3117L5.30959 12.2019ZM3.87365 12.2902V12.1726H3.756V12.2902H3.87365ZM3.80859 13.4334L3.72848 13.3471L3.7254 13.3502L3.80859 13.4334ZM3.87365 11.8906H3.756V12.0082H3.87365V11.8906ZM5.212 11.7976L5.26463 11.9029L5.26669 11.9018L5.212 11.7976ZM5.46759 11.556L5.5735 11.6072L5.57412 11.6059L5.46759 11.556ZM5.212 10.7242L5.1573 10.8284L5.15939 10.8294L5.212 10.7242ZM3.87365 10.6266V10.5089H3.756V10.6266H3.87365ZM3.65988 13.3762C3.63106 13.3762 3.61177 13.3676 3.59437 13.3502L3.42799 13.5166C3.49114 13.5797 3.57099 13.6115 3.65988 13.6115V13.3762ZM3.59437 13.3502C3.57697 13.3328 3.56841 13.3135 3.56841 13.2847H3.33312C3.33312 13.3736 3.36484 13.4534 3.42799 13.5166L3.59437 13.3502ZM3.56841 13.2847V10.4407H3.33312V13.2847H3.56841ZM3.56841 10.4407C3.56841 10.4119 3.57697 10.3926 3.59437 10.3752L3.42799 10.2088C3.36484 10.272 3.33312 10.3518 3.33312 10.4407H3.56841ZM3.59739 10.372C3.61554 10.3525 3.63394 10.3446 3.65988 10.3446V10.1093C3.5681 10.1093 3.48736 10.1447 3.42497 10.2119L3.59739 10.372ZM3.65988 10.3446H4.71941V10.1093H3.65988V10.3446ZM4.71941 10.3446C4.94546 10.3446 5.12651 10.3744 5.26664 10.4294L5.35254 10.2103C5.17667 10.1414 4.96427 10.1093 4.71941 10.1093V10.3446ZM5.26921 10.4304C5.41668 10.4843 5.52618 10.5555 5.6036 10.6407L5.7777 10.4824C5.66924 10.3631 5.52469 10.2732 5.34997 10.2094L5.26921 10.4304ZM5.60615 10.6434C5.69097 10.7309 5.74927 10.8259 5.78351 10.9287L6.00673 10.8543C5.96042 10.7153 5.88241 10.5904 5.77515 10.4797L5.60615 10.6434ZM5.78439 10.9312C5.82335 11.0397 5.84253 11.1487 5.84253 11.2586H6.07783C6.07783 11.1206 6.05363 10.9848 6.00585 10.8517L5.78439 10.9312ZM5.84253 11.2586C5.84253 11.3685 5.82335 11.4774 5.78439 11.5859L6.00585 11.6654C6.05363 11.5323 6.07783 11.3965 6.07783 11.2586H5.84253ZM5.78351 11.5885C5.74914 11.6916 5.69048 11.7886 5.6049 11.8797L5.7764 12.0408C5.8829 11.9275 5.96055 11.8014 6.00673 11.6629L5.78351 11.5885ZM5.60482 11.8798C5.52684 11.963 5.41623 12.0349 5.26736 12.0921L5.35182 12.3117C5.52514 12.2451 5.66858 12.1558 5.77648 12.0407L5.60482 11.8798ZM5.26852 12.0917C5.12774 12.1441 4.94598 12.1726 4.71941 12.1726V12.4079C4.96374 12.4079 5.17544 12.3775 5.35066 12.3122L5.26852 12.0917ZM4.71941 12.1726H3.87365V12.4079H4.71941V12.1726ZM3.756 12.2902V13.2847H3.9913V12.2902H3.756ZM3.756 13.2847C3.756 13.3106 3.74809 13.329 3.72854 13.3472L3.88864 13.5196C3.95584 13.4572 3.9913 13.3765 3.9913 13.2847H3.756ZM3.7254 13.3502C3.708 13.3676 3.68871 13.3762 3.65988 13.3762V13.6115C3.74878 13.6115 3.82863 13.5797 3.89178 13.5166L3.7254 13.3502ZM3.87365 12.0082H4.67759V11.7729H3.87365V12.0082ZM4.67759 12.0082C4.91739 12.0082 5.11685 11.9767 5.26462 11.9029L5.15939 11.6924C5.05931 11.7425 4.9025 11.7729 4.67759 11.7729V12.0082ZM5.26669 11.9018C5.40597 11.8287 5.51307 11.7321 5.57349 11.6072L5.36169 11.5047C5.32917 11.572 5.26587 11.6365 5.15732 11.6935L5.26669 11.9018ZM5.57412 11.6059C5.62714 11.4928 5.65494 11.3767 5.65494 11.2586H5.41965C5.41965 11.3387 5.40098 11.4209 5.36107 11.5061L5.57412 11.6059ZM5.65494 11.2586C5.65494 11.1378 5.62735 11.0212 5.57349 10.9099L5.36169 11.0124C5.40078 11.0932 5.41965 11.1749 5.41965 11.2586H5.65494ZM5.57349 10.9099C5.51272 10.7843 5.4048 10.689 5.26462 10.6189L5.15939 10.8294C5.26705 10.8832 5.32952 10.9459 5.36169 11.0124L5.57349 10.9099ZM5.26669 10.62C5.11825 10.5421 4.91791 10.5089 4.67759 10.5089V10.7442C4.90198 10.7442 5.05791 10.7761 5.15732 10.8283L5.26669 10.62ZM4.67759 10.5089H3.87365V10.7442H4.67759V10.5089ZM3.756 10.6266V11.8906H3.9913V10.6266H3.756ZM6.95872 13.4102L7.04191 13.327L6.95872 13.4102ZM6.95872 10.292L7.04196 10.3752L7.04493 10.372L6.95872 10.292ZM8.76642 10.371L8.7164 10.4775L8.71774 10.4781L8.76642 10.371ZM9.2776 10.7474L9.18852 10.8243L9.18928 10.8251L9.2776 10.7474ZM9.57966 11.2679L9.46822 11.3056L9.46879 11.3072L9.57966 11.2679ZM9.57966 12.4296L9.46877 12.3903L9.46823 12.3919L9.57966 12.4296ZM9.2776 12.9548L9.36592 13.0325L9.36668 13.0316L9.2776 12.9548ZM8.76642 13.3312L8.81511 13.4383L8.81644 13.4377L8.76642 13.3312ZM7.32119 13.0756H7.20354V13.1932H7.32119V13.0756ZM8.66419 12.9222L8.72017 13.0257L8.72076 13.0254L8.66419 12.9222ZM9.10566 12.4901L9.0033 12.432L9.00298 12.4326L9.10566 12.4901ZM9.10566 11.2121L9.00255 11.2688L9.00373 11.2708L9.10566 11.2121ZM8.66419 10.7799L8.6069 10.8827L8.60891 10.8838L8.66419 10.7799ZM7.32119 10.6219V10.5043H7.20354V10.6219H7.32119ZM7.10742 13.3529C7.0786 13.3529 7.05931 13.3444 7.04191 13.327L6.87553 13.4934C6.93868 13.5565 7.01852 13.5882 7.10742 13.5882V13.3529ZM7.04191 13.327C7.02451 13.3096 7.01595 13.2903 7.01595 13.2615H6.78066C6.78066 13.3504 6.81238 13.4302 6.87553 13.4934L7.04191 13.327ZM7.01595 13.2615V10.4407H6.78066V13.2615H7.01595ZM7.01595 10.4407C7.01595 10.4119 7.02451 10.3926 7.04191 10.3752L6.87553 10.2088C6.81238 10.272 6.78066 10.3518 6.78066 10.4407H7.01595ZM7.04493 10.372C7.06308 10.3525 7.08148 10.3446 7.10742 10.3446V10.1093C7.01564 10.1093 6.9349 10.1447 6.87251 10.2119L7.04493 10.372ZM7.10742 10.3446H8.04148V10.1093H7.10742V10.3446ZM8.04148 10.3446C8.30697 10.3446 8.53081 10.3903 8.71641 10.4775L8.81644 10.2645C8.5931 10.1596 8.33364 10.1093 8.04148 10.1093V10.3446ZM8.71774 10.4781C8.90792 10.5645 9.06416 10.6801 9.18852 10.8243L9.36668 10.6706C9.21842 10.4987 9.03387 10.3633 8.81511 10.2639L8.71774 10.4781ZM9.18928 10.8251C9.31551 10.9686 9.40825 11.1285 9.46823 11.3056L9.69109 11.2301C9.62096 11.0231 9.51232 10.836 9.36592 10.6697L9.18928 10.8251ZM9.46879 11.3072C9.53266 11.4872 9.56425 11.6676 9.56425 11.8488H9.79954C9.79954 11.6396 9.76297 11.4327 9.69053 11.2285L9.46879 11.3072ZM9.56425 11.8488C9.56425 12.0299 9.53266 12.2103 9.46879 12.3903L9.69053 12.469C9.76297 12.2648 9.79954 12.0579 9.79954 11.8488H9.56425ZM9.46823 12.3919C9.40818 12.5692 9.31523 12.731 9.18852 12.8779L9.36668 13.0316C9.5126 12.8625 9.62103 12.6742 9.69109 12.4674L9.46823 12.3919ZM9.18928 12.877C9.0646 13.0187 8.90767 13.1348 8.71641 13.2247L8.81644 13.4377C9.03412 13.3354 9.21797 13.2006 9.36592 13.0325L9.18928 12.877ZM8.71774 13.2241C8.53178 13.3086 8.30746 13.3529 8.04148 13.3529V13.5882C8.33316 13.5882 8.59212 13.5396 8.81511 13.4383L8.71774 13.2241ZM8.04148 13.3529H7.10742V13.5882H8.04148V13.3529ZM7.32119 13.1932H7.99036V12.9579H7.32119V13.1932ZM7.99036 13.1932C8.26605 13.1932 8.51072 13.139 8.72017 13.0257L8.60821 12.8188C8.4397 12.9099 8.23515 12.9579 7.99036 12.9579V13.1932ZM8.72076 13.0254C8.93126 12.9099 9.09482 12.7504 9.20834 12.5475L9.00298 12.4326C8.91203 12.5952 8.78128 12.7238 8.60762 12.8191L8.72076 13.0254ZM9.20802 12.5481C9.32463 12.3423 9.38131 12.108 9.38131 11.8488H9.14601C9.14601 12.0728 9.09736 12.2661 9.0033 12.432L9.20802 12.5481ZM9.38131 11.8488C9.38131 11.5895 9.32464 11.3565 9.20759 11.1534L9.00373 11.2708C9.09734 11.4333 9.14601 11.6247 9.14601 11.8488H9.38131ZM9.20874 11.1554C9.0952 10.949 8.93117 10.7888 8.71947 10.6761L8.60891 10.8838C8.78136 10.9756 8.91165 11.1035 9.00258 11.2688L9.20874 11.1554ZM8.72147 10.6772C8.51174 10.5603 8.26659 10.5043 7.99036 10.5043V10.7396C8.23461 10.7396 8.43867 10.7889 8.60691 10.8827L8.72147 10.6772ZM7.99036 10.5043H7.32119V10.7396H7.99036V10.5043ZM7.20354 10.6219V13.0756H7.43883V10.6219H7.20354ZM10.7738 13.4334L10.857 13.3502L10.7738 13.4334ZM10.7738 10.292L10.8571 10.3752L10.8601 10.372L10.7738 10.292ZM12.8697 10.2873L12.7829 10.3674L12.7899 10.3738L12.8697 10.2873ZM12.8697 10.5662L12.7898 10.4797L12.7865 10.483L12.8697 10.5662ZM11.1363 10.6219V10.5043H11.0187V10.6219H11.1363ZM11.1363 11.6489H11.0187V11.7666H11.1363V11.6489ZM12.707 11.7093L12.6203 11.7894L12.6272 11.7958L12.707 11.7093ZM12.707 11.9882L12.6272 11.9017L12.6238 11.905L12.707 11.9882ZM11.1363 12.0439V11.9263H11.0187V12.0439H11.1363ZM11.0713 13.4334L10.9912 13.3471L10.9881 13.3502L11.0713 13.4334ZM10.9226 13.3762C10.8937 13.3762 10.8744 13.3676 10.857 13.3502L10.6907 13.5166C10.7538 13.5797 10.8337 13.6115 10.9226 13.6115V13.3762ZM10.857 13.3502C10.8396 13.3328 10.8311 13.3135 10.8311 13.2847H10.5958C10.5958 13.3736 10.6275 13.4534 10.6907 13.5166L10.857 13.3502ZM10.8311 13.2847V10.4407H10.5958V13.2847H10.8311ZM10.8311 10.4407C10.8311 10.4119 10.8396 10.3926 10.857 10.3752L10.6907 10.2088C10.6275 10.272 10.5958 10.3518 10.5958 10.4407H10.8311ZM10.8601 10.372C10.8782 10.3525 10.8966 10.3446 10.9226 10.3446V10.1093C10.8308 10.1093 10.75 10.1447 10.6876 10.2119L10.8601 10.372ZM10.9226 10.3446H12.7303V10.1093H10.9226V10.3446ZM12.7303 10.3446C12.7538 10.3446 12.7688 10.3515 12.7832 10.3671L12.9561 10.2075C12.8962 10.1427 12.8182 10.1093 12.7303 10.1093V10.3446ZM12.7899 10.3738C12.8055 10.3883 12.8124 10.4032 12.8124 10.4268H13.0477C13.0477 10.3388 13.0143 10.2608 12.9495 10.2009L12.7899 10.3738ZM12.8124 10.4268C12.8124 10.4503 12.8055 10.4653 12.7899 10.4797L12.9495 10.6526C13.0143 10.5927 13.0477 10.5147 13.0477 10.4268H12.8124ZM12.7865 10.483C12.7728 10.4966 12.7569 10.5043 12.7303 10.5043V10.7396C12.8151 10.7396 12.8922 10.71 12.9529 10.6494L12.7865 10.483ZM12.7303 10.5043H11.1363V10.7396H12.7303V10.5043ZM11.0187 10.6219V11.6489H11.254V10.6219H11.0187ZM11.1363 11.7666H12.5676V11.5313H11.1363V11.7666ZM12.5676 11.7666C12.5912 11.7666 12.6061 11.7735 12.6206 11.7891L12.7935 11.6295C12.7336 11.5647 12.6556 11.5313 12.5676 11.5313V11.7666ZM12.6272 11.7958C12.6429 11.8103 12.6498 11.8252 12.6498 11.8488H12.8851C12.8851 11.7608 12.8517 11.6828 12.7868 11.6229L12.6272 11.7958ZM12.6498 11.8488C12.6498 11.8723 12.6429 11.8873 12.6272 11.9017L12.7868 12.0746C12.8517 12.0147 12.8851 11.9367 12.8851 11.8488H12.6498ZM12.6238 11.905C12.6102 11.9186 12.5943 11.9263 12.5676 11.9263V12.1616C12.6525 12.1616 12.7295 12.132 12.7902 12.0714L12.6238 11.905ZM12.5676 11.9263H11.1363V12.1616H12.5676V11.9263ZM11.0187 12.0439V13.2847H11.254V12.0439H11.0187ZM11.0187 13.2847C11.0187 13.3106 11.0108 13.329 10.9912 13.3472L11.1513 13.5196C11.2185 13.4572 11.254 13.3765 11.254 13.2847H11.0187ZM10.9881 13.3502C10.9707 13.3676 10.9514 13.3762 10.9226 13.3762V13.6115C11.0115 13.6115 11.0913 13.5797 11.1544 13.5166L10.9881 13.3502Z" fill="white" mask="url(#path-4-outside-1_97_37939)"/>
<g filter="url(#filter0_d_97_37939)">
<path d="M16 6.94117H11.2941C10.5794 6.94117 10 6.36177 10 5.64705V0.941162L16 6.94117Z" fill="url(#paint2_linear_97_37939)"/>
</g>
</g>
<defs>
<filter id="filter0_d_97_37939" x="8.64706" y="-0.470604" width="8.94118" height="8.94118" filterUnits="userSpaceOnUse" color-interpolation-filters="sRGB">
<feFlood flood-opacity="0" result="BackgroundImageFix"/>
<feColorMatrix in="SourceAlpha" type="matrix" values="0 0 0 0 0 0 0 0 0 0 0 0 0 0 0 0 0 0 127 0" result="hardAlpha"/>
<feOffset dx="0.117647" dy="0.0588236"/>
<feGaussianBlur stdDeviation="0.735295"/>
<feColorMatrix type="matrix" values="0 0 0 0 0 0 0 0 0 0 0 0 0 0 0 0 0 0 0.33 0"/>
<feBlend mode="normal" in2="BackgroundImageFix" result="effect1_dropShadow_97_37939"/>
<feBlend mode="normal" in="SourceGraphic" in2="effect1_dropShadow_97_37939" result="shape"/>
</filter>
<linearGradient id="paint0_linear_97_37939" x1="8.00001" y1="0.94104" x2="8.00001" y2="19.0587" gradientUnits="userSpaceOnUse">
<stop stop-color="#FF7979"/>
<stop offset="1" stop-color="#E85555"/>
</linearGradient>
<linearGradient id="paint1_linear_97_37939" x1="8.00001" y1="0.941162" x2="8.00001" y2="19.0588" gradientUnits="userSpaceOnUse">
<stop stop-color="#FF7981"/>
<stop offset="1" stop-color="#E85567"/>
</linearGradient>
<linearGradient id="paint2_linear_97_37939" x1="13" y1="0.941162" x2="13" y2="6.94117" gradientUnits="userSpaceOnUse">
<stop stop-color="#D03954"/>
<stop offset="1" stop-color="#C02A3C"/>
</linearGradient>
</defs>
</svg>
