<svg width="16" height="20" viewBox="0 0 16 20" fill="none" xmlns="http://www.w3.org/2000/svg">
<mask id="mask0_97_38016" style="mask-type:alpha" maskUnits="userSpaceOnUse" x="-1" y="0" width="17" height="20">
<path d="M14.7054 19.0586H1.29363C0.578909 19.0586 -0.000488281 18.4792 -0.000488281 17.7645V2.23504C-0.000488281 1.52032 0.578909 0.940918 1.29363 0.940918H9.99952L15.9995 6.94092V17.7645C15.9995 18.4792 15.4201 19.0586 14.7054 19.0586Z" fill="url(#paint0_linear_97_38016)"/>
</mask>
<g mask="url(#mask0_97_38016)">
<path d="M14.7059 19.0587H1.29412C0.579397 19.0587 0 18.4793 0 17.7646V2.23516C0 1.52044 0.579397 0.94104 1.29412 0.94104H10L16 6.94105V17.7646C16 18.4793 15.4206 19.0587 14.7059 19.0587Z" fill="url(#paint1_linear_97_38016)"/>
<g opacity="0.27" filter="url(#filter0_f_97_38016)">
<rect x="2.82373" y="9.70593" width="10.4706" height="4.94118" fill="#0072A2" style="mix-blend-mode:darken"/>
</g>
<mask id="path-4-outside-1_97_38016" maskUnits="userSpaceOnUse" x="1.41162" y="9.47046" width="12" height="5" fill="black">
<rect fill="white" x="1.41162" y="9.47046" width="12" height="5"/>
<path d="M2.50011 13.4705C2.44125 13.4705 2.39168 13.4503 2.35141 13.41C2.31113 13.3698 2.29099 13.3202 2.29099 13.2613V10.4406C2.29099 10.3817 2.31113 10.3321 2.35141 10.2919C2.39168 10.2485 2.44125 10.2268 2.50011 10.2268H3.43417C3.71299 10.2268 3.95464 10.2748 4.15911 10.3709C4.36358 10.4638 4.53398 10.5893 4.67029 10.7473C4.8066 10.9022 4.90729 11.0757 4.97235 11.2678C5.04051 11.4598 5.07458 11.6535 5.07458 11.8486C5.07458 12.0438 5.04051 12.2374 4.97235 12.4295C4.90729 12.6216 4.8066 12.7966 4.67029 12.9546C4.53398 13.1095 4.36358 13.235 4.15911 13.331C3.95464 13.424 3.71299 13.4705 3.43417 13.4705H2.50011ZM2.71388 13.0755H3.38305C3.64329 13.0755 3.8679 13.0243 4.05688 12.9221C4.24896 12.8168 4.39611 12.6727 4.49835 12.4899C4.60368 12.304 4.65635 12.0903 4.65635 11.8486C4.65635 11.607 4.60368 11.3948 4.49835 11.212C4.39611 11.0261 4.24896 10.882 4.05688 10.7798C3.8679 10.6745 3.64329 10.6218 3.38305 10.6218H2.71388V13.0755ZM7.54207 13.5169C7.21058 13.5169 6.92401 13.4457 6.68236 13.3032C6.44071 13.1607 6.25328 12.9639 6.12006 12.713C5.98685 12.462 5.91714 12.1739 5.91095 11.8486C5.91714 11.5233 5.98685 11.2352 6.12006 10.9843C6.25328 10.7333 6.44071 10.5366 6.68236 10.3941C6.92401 10.2516 7.21058 10.1803 7.54207 10.1803C7.87356 10.1803 8.16013 10.2516 8.40177 10.3941C8.64342 10.5366 8.83085 10.7333 8.96407 10.9843C9.09728 11.2352 9.16699 11.5233 9.17318 11.8486C9.16699 12.1739 9.09728 12.462 8.96407 12.713C8.83085 12.9639 8.64342 13.1607 8.40177 13.3032C8.16013 13.4457 7.87356 13.5169 7.54207 13.5169ZM7.54207 13.1219C7.7992 13.1219 8.01762 13.0662 8.1973 12.9546C8.37699 12.84 8.5133 12.6867 8.60624 12.4946C8.70228 12.3025 8.7503 12.0872 8.7503 11.8486C8.7503 11.6101 8.70228 11.3948 8.60624 11.2027C8.5133 11.0106 8.37699 10.8588 8.1973 10.7473C8.01762 10.6327 7.7992 10.5753 7.54207 10.5753C7.28493 10.5753 7.06652 10.6327 6.88683 10.7473C6.70714 10.8588 6.56928 11.0106 6.47324 11.2027C6.3803 11.3948 6.33383 11.6101 6.33383 11.8486C6.33383 12.0872 6.3803 12.3025 6.47324 12.4946C6.56928 12.6867 6.70714 12.84 6.88683 12.9546C7.06652 13.0662 7.28493 13.1219 7.54207 13.1219ZM11.6339 13.5169C11.3272 13.5169 11.0499 13.4503 10.8021 13.3171C10.5573 13.1808 10.3637 12.9887 10.2212 12.7409C10.0787 12.4899 10.0074 12.1925 10.0074 11.8486C10.0074 11.5017 10.0787 11.2042 10.2212 10.9564C10.3637 10.7086 10.5573 10.518 10.8021 10.3848C11.0499 10.2485 11.3272 10.1803 11.6339 10.1803C11.8632 10.1803 12.0614 10.2082 12.2287 10.264C12.396 10.3198 12.5509 10.3879 12.6934 10.4685C12.7244 10.4839 12.7477 10.5056 12.7631 10.5335C12.7817 10.5583 12.7926 10.5924 12.7957 10.6358C12.7988 10.6853 12.7833 10.7287 12.7492 10.7659C12.7151 10.803 12.6687 10.8216 12.6098 10.8216C12.5788 10.8216 12.5509 10.8154 12.5261 10.803C12.4022 10.738 12.2752 10.6853 12.1451 10.645C12.015 10.6048 11.8585 10.5846 11.6757 10.5846C11.4031 10.5846 11.1739 10.6404 10.988 10.7519C10.8021 10.8635 10.6627 11.0153 10.5697 11.2073C10.4768 11.3963 10.4303 11.6101 10.4303 11.8486C10.4303 12.0872 10.4768 12.3025 10.5697 12.4946C10.6627 12.6836 10.8021 12.8338 10.988 12.9453C11.1739 13.0569 11.4031 13.1126 11.6757 13.1126C11.8585 13.1126 12.015 13.0925 12.1451 13.0522C12.2752 13.0119 12.4022 12.9593 12.5261 12.8942C12.5509 12.8818 12.5788 12.8756 12.6098 12.8756C12.6687 12.8756 12.7151 12.8942 12.7492 12.9314C12.7833 12.9686 12.7988 13.0119 12.7957 13.0615C12.7926 13.1049 12.7817 13.1405 12.7631 13.1684C12.7477 13.1932 12.7244 13.2133 12.6934 13.2288C12.5509 13.3094 12.396 13.3775 12.2287 13.4333C12.0614 13.489 11.8632 13.5169 11.6339 13.5169Z"/>
</mask>
<path d="M2.50011 13.4705C2.44125 13.4705 2.39168 13.4503 2.35141 13.41C2.31113 13.3698 2.29099 13.3202 2.29099 13.2613V10.4406C2.29099 10.3817 2.31113 10.3321 2.35141 10.2919C2.39168 10.2485 2.44125 10.2268 2.50011 10.2268H3.43417C3.71299 10.2268 3.95464 10.2748 4.15911 10.3709C4.36358 10.4638 4.53398 10.5893 4.67029 10.7473C4.8066 10.9022 4.90729 11.0757 4.97235 11.2678C5.04051 11.4598 5.07458 11.6535 5.07458 11.8486C5.07458 12.0438 5.04051 12.2374 4.97235 12.4295C4.90729 12.6216 4.8066 12.7966 4.67029 12.9546C4.53398 13.1095 4.36358 13.235 4.15911 13.331C3.95464 13.424 3.71299 13.4705 3.43417 13.4705H2.50011ZM2.71388 13.0755H3.38305C3.64329 13.0755 3.8679 13.0243 4.05688 12.9221C4.24896 12.8168 4.39611 12.6727 4.49835 12.4899C4.60368 12.304 4.65635 12.0903 4.65635 11.8486C4.65635 11.607 4.60368 11.3948 4.49835 11.212C4.39611 11.0261 4.24896 10.882 4.05688 10.7798C3.8679 10.6745 3.64329 10.6218 3.38305 10.6218H2.71388V13.0755ZM7.54207 13.5169C7.21058 13.5169 6.92401 13.4457 6.68236 13.3032C6.44071 13.1607 6.25328 12.9639 6.12006 12.713C5.98685 12.462 5.91714 12.1739 5.91095 11.8486C5.91714 11.5233 5.98685 11.2352 6.12006 10.9843C6.25328 10.7333 6.44071 10.5366 6.68236 10.3941C6.92401 10.2516 7.21058 10.1803 7.54207 10.1803C7.87356 10.1803 8.16013 10.2516 8.40177 10.3941C8.64342 10.5366 8.83085 10.7333 8.96407 10.9843C9.09728 11.2352 9.16699 11.5233 9.17318 11.8486C9.16699 12.1739 9.09728 12.462 8.96407 12.713C8.83085 12.9639 8.64342 13.1607 8.40177 13.3032C8.16013 13.4457 7.87356 13.5169 7.54207 13.5169ZM7.54207 13.1219C7.7992 13.1219 8.01762 13.0662 8.1973 12.9546C8.37699 12.84 8.5133 12.6867 8.60624 12.4946C8.70228 12.3025 8.7503 12.0872 8.7503 11.8486C8.7503 11.6101 8.70228 11.3948 8.60624 11.2027C8.5133 11.0106 8.37699 10.8588 8.1973 10.7473C8.01762 10.6327 7.7992 10.5753 7.54207 10.5753C7.28493 10.5753 7.06652 10.6327 6.88683 10.7473C6.70714 10.8588 6.56928 11.0106 6.47324 11.2027C6.3803 11.3948 6.33383 11.6101 6.33383 11.8486C6.33383 12.0872 6.3803 12.3025 6.47324 12.4946C6.56928 12.6867 6.70714 12.84 6.88683 12.9546C7.06652 13.0662 7.28493 13.1219 7.54207 13.1219ZM11.6339 13.5169C11.3272 13.5169 11.0499 13.4503 10.8021 13.3171C10.5573 13.1808 10.3637 12.9887 10.2212 12.7409C10.0787 12.4899 10.0074 12.1925 10.0074 11.8486C10.0074 11.5017 10.0787 11.2042 10.2212 10.9564C10.3637 10.7086 10.5573 10.518 10.8021 10.3848C11.0499 10.2485 11.3272 10.1803 11.6339 10.1803C11.8632 10.1803 12.0614 10.2082 12.2287 10.264C12.396 10.3198 12.5509 10.3879 12.6934 10.4685C12.7244 10.4839 12.7477 10.5056 12.7631 10.5335C12.7817 10.5583 12.7926 10.5924 12.7957 10.6358C12.7988 10.6853 12.7833 10.7287 12.7492 10.7659C12.7151 10.803 12.6687 10.8216 12.6098 10.8216C12.5788 10.8216 12.5509 10.8154 12.5261 10.803C12.4022 10.738 12.2752 10.6853 12.1451 10.645C12.015 10.6048 11.8585 10.5846 11.6757 10.5846C11.4031 10.5846 11.1739 10.6404 10.988 10.7519C10.8021 10.8635 10.6627 11.0153 10.5697 11.2073C10.4768 11.3963 10.4303 11.6101 10.4303 11.8486C10.4303 12.0872 10.4768 12.3025 10.5697 12.4946C10.6627 12.6836 10.8021 12.8338 10.988 12.9453C11.1739 13.0569 11.4031 13.1126 11.6757 13.1126C11.8585 13.1126 12.015 13.0925 12.1451 13.0522C12.2752 13.0119 12.4022 12.9593 12.5261 12.8942C12.5509 12.8818 12.5788 12.8756 12.6098 12.8756C12.6687 12.8756 12.7151 12.8942 12.7492 12.9314C12.7833 12.9686 12.7988 13.0119 12.7957 13.0615C12.7926 13.1049 12.7817 13.1405 12.7631 13.1684C12.7477 13.1932 12.7244 13.2133 12.6934 13.2288C12.5509 13.3094 12.396 13.3775 12.2287 13.4333C12.0614 13.489 11.8632 13.5169 11.6339 13.5169Z" fill="white"/>
<path d="M2.35141 13.41L2.43459 13.3269L2.35141 13.41ZM2.35141 10.2919L2.43465 10.3751L2.43762 10.3719L2.35141 10.2919ZM4.15911 10.3709L4.10909 10.4774L4.11043 10.478L4.15911 10.3709ZM4.67029 10.7473L4.58121 10.8241L4.58197 10.825L4.67029 10.7473ZM4.97235 11.2678L4.86091 11.3055L4.86147 11.3071L4.97235 11.2678ZM4.97235 12.4295L4.86146 12.3902L4.86092 12.3918L4.97235 12.4295ZM4.67029 12.9546L4.75861 13.0324L4.75937 13.0315L4.67029 12.9546ZM4.15911 13.331L4.2078 13.4382L4.20913 13.4375L4.15911 13.331ZM2.71388 13.0755H2.59623V13.1931H2.71388V13.0755ZM4.05688 12.9221L4.11286 13.0256L4.11345 13.0253L4.05688 12.9221ZM4.49835 12.4899L4.39599 12.4319L4.39567 12.4325L4.49835 12.4899ZM4.49835 11.212L4.39524 11.2687L4.39642 11.2707L4.49835 11.212ZM4.05688 10.7798L3.99959 10.8826L4.0016 10.8837L4.05688 10.7798ZM2.71388 10.6218V10.5042H2.59623V10.6218H2.71388ZM2.50011 13.3528C2.47128 13.3528 2.45199 13.3443 2.43459 13.3269L2.26822 13.4932C2.33137 13.5564 2.41121 13.5881 2.50011 13.5881V13.3528ZM2.43459 13.3269C2.41719 13.3095 2.40864 13.2902 2.40864 13.2613H2.17335C2.17335 13.3502 2.20507 13.4301 2.26822 13.4932L2.43459 13.3269ZM2.40864 13.2613V10.4406H2.17335V13.2613H2.40864ZM2.40864 10.4406C2.40864 10.4117 2.41719 10.3925 2.43459 10.3751L2.26822 10.2087C2.20507 10.2718 2.17335 10.3517 2.17335 10.4406H2.40864ZM2.43762 10.3719C2.45577 10.3524 2.47417 10.3445 2.50011 10.3445V10.1092C2.40833 10.1092 2.32759 10.1446 2.26519 10.2118L2.43762 10.3719ZM2.50011 10.3445H3.43417V10.1092H2.50011V10.3445ZM3.43417 10.3445C3.69966 10.3445 3.9235 10.3902 4.1091 10.4774L4.20913 10.2644C3.98578 10.1595 3.72633 10.1092 3.43417 10.1092V10.3445ZM4.11043 10.478C4.30061 10.5644 4.45685 10.68 4.58121 10.8241L4.75937 10.6704C4.6111 10.4986 4.42656 10.3632 4.2078 10.2638L4.11043 10.478ZM4.58197 10.825C4.7082 10.9684 4.80094 11.1284 4.86092 11.3055L5.08378 11.23C5.01364 11.0229 4.90501 10.8359 4.75861 10.6696L4.58197 10.825ZM4.86147 11.3071C4.92535 11.4871 4.95694 11.6674 4.95694 11.8486H5.19223C5.19223 11.6395 5.15566 11.4326 5.08322 11.2284L4.86147 11.3071ZM4.95694 11.8486C4.95694 12.0298 4.92535 12.2102 4.86147 12.3902L5.08322 12.4689C5.15566 12.2647 5.19223 12.0578 5.19223 11.8486H4.95694ZM4.86092 12.3918C4.80087 12.5691 4.70792 12.7309 4.58121 12.8778L4.75937 13.0315C4.90529 12.8624 5.01372 12.6741 5.08378 12.4673L4.86092 12.3918ZM4.58197 12.8769C4.45729 13.0186 4.30036 13.1347 4.1091 13.2246L4.20913 13.4375C4.42681 13.3353 4.61066 13.2005 4.75861 13.0324L4.58197 12.8769ZM4.11043 13.2239C3.92447 13.3085 3.70015 13.3528 3.43417 13.3528V13.5881C3.72584 13.5881 3.98481 13.5395 4.2078 13.4381L4.11043 13.2239ZM3.43417 13.3528H2.50011V13.5881H3.43417V13.3528ZM2.71388 13.1931H3.38305V12.9578H2.71388V13.1931ZM3.38305 13.1931C3.65874 13.1931 3.90341 13.1389 4.11286 13.0256L4.0009 12.8186C3.83239 12.9098 3.62784 12.9578 3.38305 12.9578V13.1931ZM4.11345 13.0253C4.32395 12.9098 4.48751 12.7503 4.60103 12.5474L4.39567 12.4325C4.30472 12.5951 4.17397 12.7237 4.00031 12.819L4.11345 13.0253ZM4.6007 12.5479C4.71732 12.3421 4.774 12.1079 4.774 11.8486H4.5387C4.5387 12.0727 4.49005 12.2659 4.39599 12.4319L4.6007 12.5479ZM4.774 11.8486C4.774 11.5894 4.71733 11.3564 4.60028 11.1532L4.39642 11.2707C4.49003 11.4332 4.5387 11.6246 4.5387 11.8486H4.774ZM4.60143 11.1553C4.48789 10.9488 4.32386 10.7886 4.11215 10.676L4.0016 10.8837C4.17405 10.9754 4.30434 11.1034 4.39526 11.2687L4.60143 11.1553ZM4.11416 10.677C3.90443 10.5602 3.65928 10.5042 3.38305 10.5042V10.7395C3.6273 10.7395 3.83136 10.7888 3.9996 10.8826L4.11416 10.677ZM3.38305 10.5042H2.71388V10.7395H3.38305V10.5042ZM2.59623 10.6218V13.0755H2.83152V10.6218H2.59623ZM6.68236 13.3032L6.74212 13.2018L6.68236 13.3032ZM6.12006 12.713L6.01615 12.7682L6.12006 12.713ZM5.91095 11.8486L5.79324 11.8464L5.79332 11.8509L5.91095 11.8486ZM6.12006 10.9843L6.22398 11.0394V11.0394L6.12006 10.9843ZM6.68236 10.3941L6.6226 10.2928L6.68236 10.3941ZM8.40177 10.3941L8.46154 10.2928L8.40177 10.3941ZM8.96407 10.9843L8.86015 11.0394L8.86015 11.0394L8.96407 10.9843ZM9.17318 11.8486L9.2909 11.8509L9.29081 11.8464L9.17318 11.8486ZM8.96407 12.713L8.86015 12.6578H8.86015L8.96407 12.713ZM8.40177 13.3032L8.34201 13.2018L8.40177 13.3032ZM8.1973 12.9546L8.25935 13.0546L8.26057 13.0538L8.1973 12.9546ZM8.60624 12.4946L8.50101 12.442L8.50034 12.4433L8.60624 12.4946ZM8.60624 11.2027L8.50033 11.2539L8.50102 11.2553L8.60624 11.2027ZM8.1973 10.7473L8.13402 10.8465L8.13526 10.8472L8.1973 10.7473ZM6.88683 10.7473L6.94888 10.8472L6.9501 10.8465L6.88683 10.7473ZM6.47324 11.2027L6.36801 11.1501L6.36734 11.1514L6.47324 11.2027ZM6.47324 12.4946L6.36733 12.5458L6.36801 12.5472L6.47324 12.4946ZM6.88683 12.9546L6.82355 13.0538L6.82479 13.0546L6.88683 12.9546ZM7.54207 13.3993C7.22775 13.3993 6.96261 13.3319 6.74212 13.2018L6.6226 13.4045C6.8854 13.5595 7.1934 13.6346 7.54207 13.6346V13.3993ZM6.74212 13.2018C6.51942 13.0705 6.34715 12.8899 6.22398 12.6578L6.01615 12.7682C6.15941 13.038 6.36201 13.2508 6.6226 13.4045L6.74212 13.2018ZM6.22398 12.6578C6.10061 12.4254 6.03447 12.1559 6.02857 11.8464L5.79332 11.8509C5.79982 12.1919 5.87309 12.4987 6.01615 12.7682L6.22398 12.6578ZM6.02857 11.8509C6.03447 11.5414 6.10061 11.2718 6.22398 11.0394L6.01615 10.9291C5.87309 11.1986 5.79982 11.5053 5.79332 11.8464L6.02857 11.8509ZM6.22398 11.0394C6.34715 10.8074 6.51942 10.6268 6.74212 10.4954L6.6226 10.2928C6.36201 10.4464 6.15941 10.6593 6.01615 10.9291L6.22398 11.0394ZM6.74212 10.4954C6.96261 10.3654 7.22775 10.298 7.54207 10.298V10.0627C7.1934 10.0627 6.8854 10.1378 6.6226 10.2928L6.74212 10.4954ZM7.54207 10.298C7.85638 10.298 8.12152 10.3654 8.34201 10.4954L8.46154 10.2928C8.19873 10.1378 7.89073 10.0627 7.54207 10.0627V10.298ZM8.34201 10.4954C8.56471 10.6268 8.73698 10.8074 8.86015 11.0394L9.06798 10.9291C8.92472 10.6593 8.72213 10.4464 8.46154 10.2928L8.34201 10.4954ZM8.86015 11.0394C8.98353 11.2718 9.04966 11.5414 9.05556 11.8509L9.29081 11.8464C9.28431 11.5053 9.21104 11.1986 9.06798 10.9291L8.86015 11.0394ZM9.05556 11.8464C9.04966 12.1559 8.98353 12.4254 8.86015 12.6578L9.06798 12.7682C9.21104 12.4987 9.28431 12.1919 9.29081 11.8509L9.05556 11.8464ZM8.86015 12.6578C8.73698 12.8899 8.56471 13.0705 8.34201 13.2018L8.46154 13.4045C8.72213 13.2508 8.92472 13.038 9.06798 12.7682L8.86015 12.6578ZM8.34201 13.2018C8.12152 13.3319 7.85638 13.3993 7.54207 13.3993V13.6346C7.89073 13.6346 8.19873 13.5595 8.46154 13.4045L8.34201 13.2018ZM7.54207 13.2396C7.81638 13.2396 8.05737 13.18 8.25934 13.0546L8.13526 12.8547C7.97786 12.9524 7.78203 13.0043 7.54207 13.0043V13.2396ZM8.26057 13.0538C8.45866 12.9275 8.60972 12.7575 8.71214 12.5458L8.50034 12.4433C8.41688 12.6158 8.29532 12.7526 8.13403 12.8555L8.26057 13.0538ZM8.71147 12.5472C8.81655 12.337 8.86795 12.1034 8.86795 11.8486H8.63266C8.63266 12.071 8.58802 12.268 8.50102 12.442L8.71147 12.5472ZM8.86795 11.8486C8.86795 11.5939 8.81655 11.3602 8.71147 11.1501L8.50102 11.2553C8.58802 11.4293 8.63266 11.6263 8.63266 11.8486H8.86795ZM8.71214 11.1514C8.60959 10.9395 8.45815 10.7707 8.25934 10.6473L8.13526 10.8472C8.29583 10.9469 8.41702 11.0817 8.50034 11.2539L8.71214 11.1514ZM8.26057 10.6481C8.0584 10.5191 7.81695 10.4577 7.54207 10.4577V10.693C7.78145 10.693 7.97683 10.7462 8.13403 10.8465L8.26057 10.6481ZM7.54207 10.4577C7.26718 10.4577 7.02573 10.5191 6.82356 10.6481L6.9501 10.8465C7.1073 10.7462 7.30268 10.693 7.54207 10.693V10.4577ZM6.82479 10.6473C6.6263 10.7705 6.47363 10.9388 6.36801 11.1501L6.57847 11.2553C6.66493 11.0824 6.78798 10.9471 6.94887 10.8472L6.82479 10.6473ZM6.36734 11.1514C6.2658 11.3613 6.21618 11.5944 6.21618 11.8486H6.45148C6.45148 11.6257 6.4948 11.4282 6.57914 11.2539L6.36734 11.1514ZM6.21618 11.8486C6.21618 12.1028 6.2658 12.336 6.36734 12.5458L6.57914 12.4433C6.4948 12.269 6.45148 12.0715 6.45148 11.8486H6.21618ZM6.36801 12.5472C6.47349 12.7581 6.62579 12.9277 6.82356 13.0538L6.9501 12.8555C6.7885 12.7524 6.66507 12.6152 6.57847 12.442L6.36801 12.5472ZM6.82479 13.0546C7.02676 13.18 7.26775 13.2396 7.54207 13.2396V13.0043C7.3021 13.0043 7.10627 12.9524 6.94887 12.8547L6.82479 13.0546ZM10.8021 13.3171L10.7448 13.4199L10.7464 13.4207L10.8021 13.3171ZM10.2212 12.7409L10.1189 12.799L10.1192 12.7995L10.2212 12.7409ZM10.2212 10.9564L10.3232 11.015L10.2212 10.9564ZM10.8021 10.3848L10.8583 10.4881L10.8588 10.4879L10.8021 10.3848ZM12.2287 10.264L12.2659 10.1524V10.1524L12.2287 10.264ZM12.6934 10.4685L12.6355 10.571L12.6408 10.5737L12.6934 10.4685ZM12.7631 10.5335L12.6603 10.5906L12.6642 10.5977L12.669 10.6041L12.7631 10.5335ZM12.7957 10.6358L12.9131 10.6284L12.913 10.6274L12.7957 10.6358ZM12.7492 10.7659L12.8359 10.8454V10.8454L12.7492 10.7659ZM12.5261 10.803L12.4715 10.9072L12.4735 10.9083L12.5261 10.803ZM12.1451 10.645L12.1799 10.5327L12.1451 10.645ZM10.988 10.7519L10.9274 10.651L10.988 10.7519ZM10.5697 11.2073L10.6753 11.2593L10.6756 11.2586L10.5697 11.2073ZM10.5697 12.4946L10.4638 12.5458L10.4642 12.5465L10.5697 12.4946ZM10.988 12.9453L10.9274 13.0462L10.988 12.9453ZM12.1451 13.0522L12.1799 13.1646L12.1451 13.0522ZM12.5261 12.8942L12.4735 12.789L12.4715 12.7901L12.5261 12.8942ZM12.7492 12.9314L12.8359 12.8519V12.8519L12.7492 12.9314ZM12.7957 13.0615L12.913 13.0699L12.9131 13.0689L12.7957 13.0615ZM12.7631 13.1684L12.6652 13.1031L12.6634 13.106L12.7631 13.1684ZM12.6934 13.2288L12.6408 13.1234L12.6356 13.1264L12.6934 13.2288ZM12.2287 13.4333L12.2659 13.5449L12.2287 13.4333ZM11.6339 13.3993C11.3449 13.3993 11.087 13.3367 10.8578 13.2135L10.7464 13.4207C11.0129 13.564 11.3096 13.6346 11.6339 13.6346V13.3993ZM10.8593 13.2143C10.6336 13.0886 10.4553 12.912 10.3232 12.6822L10.1192 12.7995C10.2721 13.0655 10.4811 13.273 10.7448 13.4199L10.8593 13.2143ZM10.3235 12.6828C10.1928 12.4527 10.1251 12.1761 10.1251 11.8486H9.88979C9.88979 12.209 9.96457 12.5272 10.1189 12.799L10.3235 12.6828ZM10.1251 11.8486C10.1251 11.5178 10.1929 11.2416 10.3232 11.015L10.1192 10.8978C9.96446 11.1669 9.88979 11.4855 9.88979 11.8486H10.1251ZM10.3232 11.015C10.4552 10.7855 10.6332 10.6107 10.8583 10.4881L10.7458 10.2815C10.4815 10.4254 10.2723 10.6316 10.1192 10.8978L10.3232 11.015ZM10.8588 10.4879C11.0878 10.3619 11.3453 10.298 11.6339 10.298V10.0627C11.3091 10.0627 11.0121 10.1351 10.7454 10.2817L10.8588 10.4879ZM11.6339 10.298C11.8541 10.298 12.0392 10.3248 12.1915 10.3756L12.2659 10.1524C12.0837 10.0916 11.8722 10.0627 11.6339 10.0627V10.298ZM12.1915 10.3756C12.3522 10.4292 12.5001 10.4943 12.6356 10.5709L12.7513 10.366C12.6018 10.2815 12.4399 10.2103 12.2659 10.1524L12.1915 10.3756ZM12.6408 10.5737C12.6525 10.5795 12.6573 10.5853 12.6603 10.5906L12.866 10.4764C12.838 10.426 12.7963 10.3884 12.7461 10.3632L12.6408 10.5737ZM12.669 10.6041C12.6696 10.6049 12.6762 10.6146 12.6783 10.6441L12.913 10.6274C12.9089 10.5702 12.8938 10.5117 12.8573 10.4629L12.669 10.6041ZM12.6783 10.6431C12.6793 10.6602 12.6753 10.6724 12.6625 10.6864L12.8359 10.8454C12.8912 10.785 12.9182 10.7104 12.9131 10.6284L12.6783 10.6431ZM12.6625 10.6864C12.6545 10.6951 12.6417 10.704 12.6098 10.704V10.9393C12.6956 10.9393 12.7758 10.911 12.8359 10.8454L12.6625 10.6864ZM12.6098 10.704C12.5949 10.704 12.5854 10.7011 12.5788 10.6978L12.4735 10.9083C12.5165 10.9298 12.5627 10.9393 12.6098 10.9393V10.704ZM12.5808 10.6989C12.4507 10.6306 12.3171 10.5751 12.1799 10.5327L12.1103 10.7574C12.2334 10.7955 12.3537 10.8454 12.4715 10.9072L12.5808 10.6989ZM12.1799 10.5327C12.0354 10.4879 11.8666 10.467 11.6757 10.467V10.7023C11.8505 10.7023 11.9946 10.7216 12.1103 10.7574L12.1799 10.5327ZM11.6757 10.467C11.3872 10.467 11.1358 10.5261 10.9274 10.651L11.0485 10.8528C11.2119 10.7547 11.419 10.7023 11.6757 10.7023V10.467ZM10.9274 10.651C10.7223 10.7742 10.5669 10.9431 10.4638 11.1561L10.6756 11.2586C10.7584 11.0875 10.8819 10.9528 11.0485 10.8528L10.9274 10.651ZM10.4642 11.1554C10.3623 11.3626 10.3127 11.5945 10.3127 11.8486H10.548C10.548 11.6257 10.5913 11.4301 10.6753 11.2593L10.4642 11.1554ZM10.3127 11.8486C10.3127 12.1028 10.3623 12.336 10.4638 12.5458L10.6756 12.4433C10.5913 12.269 10.548 12.0715 10.548 11.8486H10.3127ZM10.4642 12.5465C10.5674 12.7564 10.7227 12.9234 10.9274 13.0462L11.0485 12.8445C10.8814 12.7442 10.758 12.6107 10.6753 12.4427L10.4642 12.5465ZM10.9274 13.0462C11.1358 13.1712 11.3872 13.2303 11.6757 13.2303V12.995C11.419 12.995 11.2119 12.9425 11.0485 12.8445L10.9274 13.0462ZM11.6757 13.2303C11.8666 13.2303 12.0354 13.2093 12.1799 13.1646L12.1103 12.9398C11.9946 12.9757 11.8505 12.995 11.6757 12.995V13.2303ZM12.1799 13.1646C12.3171 13.1222 12.4507 13.0667 12.5808 12.9984L12.4715 12.7901C12.3537 12.8519 12.2334 12.9017 12.1103 12.9398L12.1799 13.1646ZM12.5788 12.9994C12.5854 12.9961 12.5949 12.9933 12.6098 12.9933V12.758C12.5627 12.758 12.5165 12.7675 12.4735 12.789L12.5788 12.9994ZM12.6098 12.9933C12.6417 12.9933 12.6545 13.0021 12.6625 13.0109L12.8359 12.8519C12.7758 12.7863 12.6956 12.758 12.6098 12.758V12.9933ZM12.6625 13.0109C12.6753 13.0249 12.6793 13.0371 12.6783 13.0542L12.9131 13.0689C12.9182 12.9868 12.8912 12.9122 12.8359 12.8519L12.6625 13.0109ZM12.6783 13.0531C12.6763 13.0821 12.6697 13.0965 12.6653 13.1031L12.861 13.2337C12.8938 13.1845 12.9089 13.1277 12.913 13.0699L12.6783 13.0531ZM12.6634 13.106C12.6613 13.1093 12.6561 13.116 12.6408 13.1236L12.7461 13.334C12.7928 13.3107 12.834 13.277 12.8629 13.2308L12.6634 13.106ZM12.6356 13.1264C12.5001 13.2029 12.3522 13.2681 12.1915 13.3217L12.2659 13.5449C12.4399 13.4869 12.6018 13.4158 12.7513 13.3312L12.6356 13.1264ZM12.1915 13.3217C12.0392 13.3724 11.8541 13.3993 11.6339 13.3993V13.6346C11.8722 13.6346 12.0837 13.6056 12.2659 13.5449L12.1915 13.3217Z" fill="white" mask="url(#path-4-outside-1_97_38016)"/>
<g filter="url(#filter1_d_97_38016)">
<path d="M16 6.94105H11.2941C10.5794 6.94105 10 6.36165 10 5.64693V0.94104L16 6.94105Z" fill="url(#paint2_linear_97_38016)"/>
</g>
<g opacity="0.11">
<line x1="4.29395" y1="8.64694" x2="11.7057" y2="8.64694" stroke="white" stroke-width="0.705883"/>
<line x1="4.29395" y1="10.4116" x2="11.7057" y2="10.4116" stroke="white" stroke-width="0.705883"/>
<line x1="4.29395" y1="12.1764" x2="11.7057" y2="12.1764" stroke="white" stroke-width="0.705883"/>
<line x1="4.29395" y1="13.9411" x2="11.7057" y2="13.9411" stroke="white" stroke-width="0.705883"/>
<line x1="4.29395" y1="15.7058" x2="11.7057" y2="15.7058" stroke="white" stroke-width="0.705883"/>
</g>
</g>
<defs>
<filter id="filter0_f_97_38016" x="0.52961" y="7.41181" width="15.0589" height="9.5294" filterUnits="userSpaceOnUse" color-interpolation-filters="sRGB">
<feFlood flood-opacity="0" result="BackgroundImageFix"/>
<feBlend mode="normal" in="SourceGraphic" in2="BackgroundImageFix" result="shape"/>
<feGaussianBlur stdDeviation="1.14706" result="effect1_foregroundBlur_97_38016"/>
</filter>
<filter id="filter1_d_97_38016" x="8.64706" y="-0.470726" width="8.94118" height="8.94118" filterUnits="userSpaceOnUse" color-interpolation-filters="sRGB">
<feFlood flood-opacity="0" result="BackgroundImageFix"/>
<feColorMatrix in="SourceAlpha" type="matrix" values="0 0 0 0 0 0 0 0 0 0 0 0 0 0 0 0 0 0 127 0" result="hardAlpha"/>
<feOffset dx="0.117647" dy="0.0588236"/>
<feGaussianBlur stdDeviation="0.735295"/>
<feColorMatrix type="matrix" values="0 0 0 0 0 0 0 0 0 0 0 0 0 0 0 0 0 0 0.33 0"/>
<feBlend mode="normal" in2="BackgroundImageFix" result="effect1_dropShadow_97_38016"/>
<feBlend mode="normal" in="SourceGraphic" in2="effect1_dropShadow_97_38016" result="shape"/>
</filter>
<linearGradient id="paint0_linear_97_38016" x1="7.99952" y1="0.940918" x2="7.99952" y2="19.0586" gradientUnits="userSpaceOnUse">
<stop stop-color="#FF7979"/>
<stop offset="1" stop-color="#E85555"/>
</linearGradient>
<linearGradient id="paint1_linear_97_38016" x1="8.00001" y1="0.94104" x2="8.00001" y2="19.0587" gradientUnits="userSpaceOnUse">
<stop stop-color="#6ABDF8"/>
<stop offset="1" stop-color="#008BD6"/>
</linearGradient>
<linearGradient id="paint2_linear_97_38016" x1="13" y1="0.94104" x2="13" y2="6.94105" gradientUnits="userSpaceOnUse">
<stop stop-color="#009FE3"/>
<stop offset="1" stop-color="#0087C1"/>
</linearGradient>
</defs>
</svg>
